<?xml version="1.0" encoding="utf-8"?>
<!-- Generator: Adobe Illustrator 16.0.0, SVG Export Plug-In . SVG Version: 6.00 Build 0)  -->
<!DOCTYPE svg PUBLIC "-//W3C//DTD SVG 1.1//EN" "http://www.w3.org/Graphics/SVG/1.1/DTD/svg11.dtd">
<svg version="1.1" id="Layer_1" xmlns="http://www.w3.org/2000/svg" xmlns:xlink="http://www.w3.org/1999/xlink" x="0px" y="0px"
	 width="1000px" height="643.777px" viewBox="0 0 1000 643.777" enable-background="new 0 0 1000 643.777" xml:space="preserve">
<g>
	<path d="M164.171,0v71.689H88.897v500.398h75.273v71.689H0V0H164.171z"/>
	<path d="M476.002,230.841v212.205c0,30.109,2.867,46.6,12.185,68.823h-94.63c-4.303-7.169-7.887-20.792-12.188-40.146h-1.432
		c-21.509,35.844-43.732,50.181-97.501,50.181c-78.141,0-93.913-70.972-93.913-111.12c0-68.823,25.808-100.364,103.234-121.156
		l45.165-12.188c32.258-8.601,44.446-19.357,44.446-46.6c0-32.259-15.055-47.313-45.882-47.313
		c-27.957,0-45.882,16.489-45.882,50.901v10.035h-88.894v-7.169c0-80.293,46.596-121.159,135.493-121.159
		C433.705,116.136,476.002,147.681,476.002,230.841z M320.432,454.517c30.109,0,60.937-20.074,60.937-58.07v-78.857
		c-10.753,7.886-15.772,11.47-33.693,17.921l-21.506,7.887c-30.827,11.47-43.016,26.525-43.016,57.353
		C283.153,435.16,296.773,454.517,320.432,454.517z"/>
	<path d="M806.466,226.542v15.055h-88.894c0-42.297-12.906-58.069-43.733-58.069c-26.525,0-46.6,15.055-46.6,41.58
		c0,22.223,14.338,35.847,40.866,44.446l65.235,22.228c55.203,18.639,81.729,48.748,81.729,108.968
		c0,76.709-55.2,121.155-143.38,121.155c-98.936,0-141.947-37.278-141.947-121.873v-14.338h88.894v10.036
		c0,40.865,20.792,58.787,51.619,58.787c32.977,0,50.184-17.207,50.184-45.882c0-20.792-11.47-35.129-35.847-43.732l-69.54-25.091
		c-58.784-21.506-82.442-55.917-82.442-107.536c0-70.258,48.748-116.14,141.947-116.14
		C768.47,116.136,806.466,159.151,806.466,226.542z"/>
	<path d="M1000,0v643.777H835.83v-71.689h75.273V71.689H835.83V0H1000z"/>
</g>
</svg>
