<?xml version="1.0" encoding="UTF-8" standalone="no"?>
<svg
   id="The_Price_Is_Right"
   width="1000"
   height="1068.4153"
   viewBox="0 0 1000 1068.4153"
   version="1.1"
   xmlns="http://www.w3.org/2000/svg"
   xmlns:svg="http://www.w3.org/2000/svg">
  <defs
     id="defs1">
    <style
       id="style1">.cls-1{fill:#faefed;}.cls-1,.cls-2{stroke-width:0px;}.cls-2{fill:#fff200;}</style>
  </defs>
  <path
     class="cls-1"
     d="M 465.80124,0 C 265.80125,0 91.58462,109.83625 0,272.57323 l 111.90689,62.94289 c 69.56133,-123.64423 201.9695,-207.11978 353.89435,-207.11978 224.17184,0 405.81915,181.74538 405.81915,405.81132 0,224.06597 -181.7368,405.81134 -405.81915,405.81134 -151.74576,0 -283.9749,-83.29623 -353.62577,-206.58183 L 0.26858,796.38008 C 91.94269,958.75839 266.06984,1068.4153 465.80124,1068.4153 760.87735,1068.4153 1000,829.19644 1000,534.20766 1000,239.21888 760.78782,0 465.80124,0 Z"
     id="path2"
     style="fill:#fdc600;fill-opacity:1" />
  <path
     class="cls-1"
     d="m 590.86837,604.86152 c -24.70908,43.57585 -71.44137,72.8954 -125.06713,72.8954 -79.31962,0 -143.59896,-64.28784 -143.59896,-143.63891 0,-79.35111 64.27934,-143.63892 143.59896,-143.63892 53.80482,0 100.71622,29.58851 125.33574,73.43335 L 702.95437,401.05922 C 656.40104,318.21131 567.68129,262.26207 465.80124,262.26207 c -150.13429,0 -271.88896,121.76133 -271.88896,271.85594 0,150.09458 121.75467,271.8559 271.88896,271.8559 101.61144,0 190.15219,-55.7699 236.79498,-138.34885 z"
     id="path3"
     style="fill:#fdc600;fill-opacity:1" />
</svg>
