<?xml version="1.0" encoding="UTF-8" standalone="no"?>
<!-- Created with Inkscape (http://www.inkscape.org/) -->

<svg
   width="308.67978mm"
   height="219.38113mm"
   viewBox="0 0 308.67976 219.38114"
   version="1.1"
   id="svg8"
   inkscape:version="1.4 (86a8ad7, 2024-10-11)"
   sodipodi:docname="KRDO_2021_logo.svg"
   xmlns:inkscape="http://www.inkscape.org/namespaces/inkscape"
   xmlns:sodipodi="http://sodipodi.sourceforge.net/DTD/sodipodi-0.dtd"
   xmlns:xlink="http://www.w3.org/1999/xlink"
   xmlns="http://www.w3.org/2000/svg"
   xmlns:svg="http://www.w3.org/2000/svg"
   xmlns:rdf="http://www.w3.org/1999/02/22-rdf-syntax-ns#"
   xmlns:cc="http://creativecommons.org/ns#"
   xmlns:dc="http://purl.org/dc/elements/1.1/">
  <defs
     id="defs2">
    <linearGradient
       inkscape:collect="always"
       id="linearGradient1008">
      <stop
         style="stop-color:#1a1a1a;stop-opacity:0.8"
         offset="0"
         id="stop1004" />
      <stop
         style="stop-color:#ffffff;stop-opacity:0;"
         offset="1"
         id="stop1006" />
    </linearGradient>
    <linearGradient
       id="linearGradient1000"
       inkscape:collect="always">
      <stop
         id="stop996"
         offset="0"
         style="stop-color:#ffffff;stop-opacity:1" />
      <stop
         id="stop998"
         offset="1"
         style="stop-color:#ffffff;stop-opacity:0;" />
    </linearGradient>
    <linearGradient
       inkscape:collect="always"
       id="linearGradient972">
      <stop
         style="stop-color:#ffffff;stop-opacity:1;"
         offset="0"
         id="stop968" />
      <stop
         style="stop-color:#ffffff;stop-opacity:0;"
         offset="1"
         id="stop970" />
    </linearGradient>
    <linearGradient
       inkscape:collect="always"
       id="linearGradient874">
      <stop
         style="stop-color:#c89e30;stop-opacity:1;"
         offset="0"
         id="stop870" />
      <stop
         id="stop878"
         offset="0.46933293"
         style="stop-color:#efc147;stop-opacity:1" />
      <stop
         style="stop-color:#bb9331;stop-opacity:1"
         offset="1"
         id="stop872" />
    </linearGradient>
    <linearGradient
       inkscape:collect="always"
       xlink:href="#linearGradient874"
       id="linearGradient876"
       x1="-265.98126"
       y1="267.49335"
       x2="-223.07552"
       y2="240.27596"
       gradientUnits="userSpaceOnUse" />
    <linearGradient
       inkscape:collect="always"
       xlink:href="#linearGradient874"
       id="linearGradient888"
       gradientUnits="userSpaceOnUse"
       x1="-265.98126"
       y1="267.49335"
       x2="-223.07552"
       y2="240.27596"
       gradientTransform="translate(0.22617364)" />
    <radialGradient
       inkscape:collect="always"
       xlink:href="#linearGradient972"
       id="radialGradient974"
       cx="-266.83203"
       cy="238.30865"
       fx="-266.83203"
       fy="238.30865"
       r="23.009794"
       gradientTransform="matrix(0.08897432,0.29668234,-0.1801496,0.05402643,-200.15963,310.36946)"
       gradientUnits="userSpaceOnUse" />
    <radialGradient
       inkscape:collect="always"
       xlink:href="#linearGradient1000"
       id="radialGradient992"
       gradientUnits="userSpaceOnUse"
       gradientTransform="matrix(0.46500116,1.5505331,-0.94150508,0.28235508,359.42149,370.97287)"
       cx="-247.98039"
       cy="218.69453"
       fx="-247.98039"
       fy="218.69453"
       r="23.009794" />
    <radialGradient
       inkscape:collect="always"
       xlink:href="#linearGradient1008"
       id="radialGradient1002"
       gradientUnits="userSpaceOnUse"
       gradientTransform="matrix(0.46500116,1.5505331,-0.94150508,0.28235508,359.42152,370.97287)"
       cx="-269.03903"
       cy="183.80159"
       fx="-269.03903"
       fy="183.80159"
       r="23.009794" />
    <radialGradient
       inkscape:collect="always"
       xlink:href="#linearGradient972"
       id="radialGradient1012"
       gradientUnits="userSpaceOnUse"
       gradientTransform="matrix(0.46500116,1.5505331,-0.94150508,0.28235508,359.42152,370.97287)"
       cx="-205.52188"
       cy="194.45372"
       fx="-205.52188"
       fy="194.45372"
       r="23.009794" />
    <radialGradient
       inkscape:collect="always"
       xlink:href="#linearGradient1000"
       id="radialGradient1019"
       gradientUnits="userSpaceOnUse"
       gradientTransform="matrix(0.46500116,1.5505331,-0.94150508,0.28235508,359.42149,370.97287)"
       cx="-207.2887"
       cy="196.42191"
       fx="-207.2887"
       fy="196.42191"
       r="23.009794" />
    <radialGradient
       inkscape:collect="always"
       xlink:href="#linearGradient1008"
       id="radialGradient1023"
       gradientUnits="userSpaceOnUse"
       gradientTransform="matrix(0.46500116,1.5505331,-0.94150508,0.28235508,359.42149,370.97287)"
       cx="-243.19156"
       cy="170.63979"
       fx="-243.19156"
       fy="170.63979"
       r="23.009794" />
    <radialGradient
       inkscape:collect="always"
       xlink:href="#linearGradient1008"
       id="radialGradient1027"
       gradientUnits="userSpaceOnUse"
       gradientTransform="matrix(-0.43105119,1.5603122,-1.5250267,-0.42130336,268.13453,479.36326)"
       cx="-200.37532"
       cy="151.25369"
       fx="-200.37532"
       fy="151.25369"
       r="23.009794" />
    <radialGradient
       inkscape:collect="always"
       xlink:href="#linearGradient1008"
       id="radialGradient1031"
       gradientUnits="userSpaceOnUse"
       gradientTransform="matrix(-0.43105119,1.5603122,-1.5250267,-0.42130336,268.13453,479.36326)"
       cx="-178.50571"
       cy="125.39213"
       fx="-178.50571"
       fy="125.39213"
       r="23.009794" />
    <radialGradient
       inkscape:collect="always"
       xlink:href="#linearGradient1008"
       id="radialGradient1035"
       gradientUnits="userSpaceOnUse"
       gradientTransform="matrix(-0.43105119,1.5603122,-1.5250267,-0.42130336,268.13453,479.36326)"
       cx="-233.47168"
       cy="107.34315"
       fx="-233.47168"
       fy="107.34315"
       r="23.009794" />
    <radialGradient
       inkscape:collect="always"
       xlink:href="#linearGradient972"
       id="radialGradient1039"
       gradientUnits="userSpaceOnUse"
       gradientTransform="matrix(-0.43105119,1.5603122,-1.5250267,-0.42130336,268.13453,479.36326)"
       cx="-238.85298"
       cy="93.974648"
       fx="-238.85298"
       fy="93.974648"
       r="23.009794" />
    <radialGradient
       inkscape:collect="always"
       xlink:href="#linearGradient972"
       id="radialGradient1043"
       gradientUnits="userSpaceOnUse"
       gradientTransform="matrix(-0.43105119,1.5603122,-1.5250267,-0.42130336,268.13453,479.36326)"
       cx="-271.05621"
       cy="133.94376"
       fx="-271.05621"
       fy="133.94376"
       r="23.009794" />
    <radialGradient
       inkscape:collect="always"
       xlink:href="#linearGradient1008"
       id="radialGradient1047"
       gradientUnits="userSpaceOnUse"
       gradientTransform="matrix(-0.43105119,1.5603122,-1.5250267,-0.42130336,268.13453,479.36326)"
       cx="-264.70825"
       cy="151.82957"
       fx="-264.70825"
       fy="151.82957"
       r="23.009794" />
    <radialGradient
       inkscape:collect="always"
       xlink:href="#linearGradient1008"
       id="radialGradient1051"
       gradientUnits="userSpaceOnUse"
       gradientTransform="matrix(-0.43105119,1.5603122,-1.5250267,-0.42130336,268.13453,479.36326)"
       cx="-229.05237"
       cy="176.86937"
       fx="-229.05237"
       fy="176.86937"
       r="23.009794" />
    <linearGradient
       inkscape:collect="always"
       xlink:href="#linearGradient874"
       id="linearGradient1189"
       gradientUnits="userSpaceOnUse"
       x1="-265.98126"
       y1="267.49335"
       x2="-223.07552"
       y2="240.27596" />
    <radialGradient
       inkscape:collect="always"
       xlink:href="#linearGradient972"
       id="radialGradient1191"
       gradientUnits="userSpaceOnUse"
       gradientTransform="matrix(0.08897432,0.29668234,-0.1801496,0.05402643,-200.15963,310.36946)"
       cx="-266.83203"
       cy="238.30865"
       fx="-266.83203"
       fy="238.30865"
       r="23.009794" />
    <radialGradient
       inkscape:collect="always"
       xlink:href="#linearGradient972"
       id="radialGradient1193"
       gradientUnits="userSpaceOnUse"
       gradientTransform="matrix(0.08897432,0.29668234,-0.1801496,0.05402643,-200.15963,310.36946)"
       cx="-266.83203"
       cy="238.30865"
       fx="-266.83203"
       fy="238.30865"
       r="23.009794" />
    <clipPath
       id="clip1">
      <path
         d="M 0,0 H 977.82031 V 977.82031 H 0 Z m 0,0"
         id="path2" />
    </clipPath>
  </defs>
  <sodipodi:namedview
     id="base"
     pagecolor="#1f1f1f"
     bordercolor="#666666"
     borderopacity="1.0"
     inkscape:pageopacity="0"
     inkscape:pageshadow="2"
     inkscape:zoom="0.35"
     inkscape:cx="850"
     inkscape:cy="258.57143"
     inkscape:document-units="mm"
     inkscape:current-layer="svg8"
     showgrid="false"
     inkscape:window-width="1366"
     inkscape:window-height="697"
     inkscape:window-x="-8"
     inkscape:window-y="-8"
     inkscape:window-maximized="1"
     showguides="false"
     inkscape:lockguides="true"
     inkscape:showpageshadow="0"
     inkscape:pagecheckerboard="1"
     inkscape:deskcolor="#d1d1d1">
    <sodipodi:guide
       position="-193.52381,267.98513"
       orientation="-0.70710678,0.70710678"
       id="guide880"
       inkscape:locked="true" />
  </sodipodi:namedview>
  <metadata
     id="metadata5">
    <rdf:RDF>
      <cc:Work
         rdf:about="">
        <dc:format>image/svg+xml</dc:format>
        <dc:type
           rdf:resource="http://purl.org/dc/dcmitype/StillImage" />
      </cc:Work>
    </rdf:RDF>
  </metadata>
  <g
     aria-label="13"
     transform="matrix(5.2262404,0,0,5.2262404,1405.5039,-1251.0925)"
     style="font-style:normal;font-variant:normal;font-weight:bold;font-stretch:normal;font-size:40px;line-height:1.25;font-family:'Arthouse Owned';-inkscape-font-specification:'Arthouse Owned, Bold';font-variant-ligatures:normal;font-variant-caps:normal;font-variant-numeric:normal;font-feature-settings:normal;text-align:start;letter-spacing:-6.64094067px;word-spacing:0px;writing-mode:lr-tb;text-anchor:start;fill:url(#linearGradient876);fill-opacity:1;stroke:none"
     id="flowRoot826">
    <path
       d="m -250.38125,240.25334 h -6.88 c -3.88,2.24 -5.16,2.88 -9.76,3.64 l -1.36,5.92 c 3.08,-0.2 3.68,-0.24 6.76,-1.2 l -4.36,18.88 h 9.32 z"
       style="font-style:italic;font-variant:normal;font-weight:bold;font-stretch:expanded;font-family:Akzidenz-Grotesk;-inkscape-font-specification:'Akzidenz-Grotesk Bold Italic Expanded';letter-spacing:-6.64094067px;fill:url(#linearGradient1189);fill-opacity:1"
       id="path838"
       inkscape:connector-curvature="0" />
    <path
       d="m -253.75618,259.69334 c 0.12,5 4.16,8.4 13.8,8.4 8.32,0 15.92,-3.12 15.92,-8.76 0,-3.6 -3.28,-5.84 -6.36,-6.6 4.36,-1.08 7.52,-2.68 7.52,-6.4 0,-2.84 -2.28,-6.72 -11.48,-6.72 -4.48,0 -10.08,0.68 -13.32,3.48 -2.44,2.04 -2.76,4.36 -2.96,5.6 h 8.48 c 0.32,-2.48 4.2,-3.16 6.48,-3.16 3.04,0 3.64,1.48 3.64,2.32 0,0.44 -0.24,1.16 -0.84,1.68 -1.92,1.6 -4.24,1.4 -8.88,1.6 l -1.24,5.36 c 1.72,-0.12 3.52,-0.24 5.4,-0.24 1.32,0 4.16,0.12 4.16,2.52 0,2.12 -3.08,3.32 -6,3.32 -2.52,0 -5.16,-0.72 -5.8,-3 z"
       style="font-style:italic;font-variant:normal;font-weight:bold;font-stretch:expanded;font-family:Akzidenz-Grotesk;-inkscape-font-specification:'Akzidenz-Grotesk Bold Italic Expanded';letter-spacing:-6.64094067px;fill:url(#linearGradient888);fill-opacity:1"
       id="path840"
       inkscape:connector-curvature="0" />
  </g>
  <g
     id="g894"
     style="font-style:normal;font-variant:normal;font-weight:bold;font-stretch:normal;font-size:40px;line-height:1.25;font-family:'Arthouse Owned';-inkscape-font-specification:'Arthouse Owned, Bold';font-variant-ligatures:normal;font-variant-caps:normal;font-variant-numeric:normal;font-feature-settings:normal;text-align:start;letter-spacing:-6.64094067px;word-spacing:0px;writing-mode:lr-tb;text-anchor:start;fill:#e5b13c;fill-opacity:1;stroke:none;stroke-width:0.45234725;stroke-miterlimit:4;stroke-dasharray:none"
     transform="matrix(5.2262404,0,0,5.2262404,1405.5039,-1251.0925)"
     aria-label="13">
    <path
       style="color:#000000;font-style:italic;font-variant:normal;font-weight:bold;font-stretch:expanded;font-size:medium;line-height:1.25;font-family:Akzidenz-Grotesk;-inkscape-font-specification:'Akzidenz-Grotesk Bold Italic Expanded';font-variant-ligatures:normal;font-variant-position:normal;font-variant-caps:normal;font-variant-numeric:normal;font-variant-alternates:normal;font-feature-settings:normal;text-indent:0;text-align:start;text-decoration:none;text-decoration-line:none;text-decoration-style:solid;text-decoration-color:#000000;letter-spacing:-6.64094067px;word-spacing:0px;text-transform:none;writing-mode:lr-tb;direction:ltr;text-orientation:mixed;dominant-baseline:auto;baseline-shift:baseline;text-anchor:start;white-space:normal;shape-padding:0;clip-rule:nonzero;display:inline;overflow:visible;visibility:visible;opacity:1;isolation:auto;mix-blend-mode:normal;color-interpolation:sRGB;color-interpolation-filters:linearRGB;solid-color:#000000;solid-opacity:1;vector-effect:none;fill:#e5b13c;fill-opacity:1;fill-rule:nonzero;stroke:none;stroke-width:0.45234725;stroke-linecap:butt;stroke-linejoin:miter;stroke-miterlimit:4;stroke-dasharray:none;stroke-dashoffset:0;stroke-opacity:1;color-rendering:auto;image-rendering:auto;shape-rendering:auto;text-rendering:auto;enable-background:accumulate"
       d="m -257.32227,240.02734 -0.0527,0.0293 c -3.8775,2.23856 -5.09708,2.85551 -9.68359,3.61328 l -0.14844,0.0254 -1.46289,6.36328 0.30273,-0.0195 c 2.9123,-0.18911 3.76088,-0.29293 6.44141,-1.11133 l -4.33984,18.79102 h 9.78515 l 6.38281,-27.69141 h -0.2832 z m 0.11329,0.45313 h 6.54296 l -6.17578,26.78711 h -8.85547 l 4.38477,-18.98828 -0.37695,0.11718 c -2.93342,0.91432 -3.67114,0.98565 -6.40039,1.16407 l 1.25781,-5.48047 c 4.42301,-0.7436 5.85502,-1.42573 9.62305,-3.59961 z"
       id="path890"
       inkscape:connector-curvature="0" />
    <path
       style="color:#000000;font-style:italic;font-variant:normal;font-weight:bold;font-stretch:expanded;font-size:medium;line-height:1.25;font-family:Akzidenz-Grotesk;-inkscape-font-specification:'Akzidenz-Grotesk Bold Italic Expanded';font-variant-ligatures:normal;font-variant-position:normal;font-variant-caps:normal;font-variant-numeric:normal;font-variant-alternates:normal;font-feature-settings:normal;text-indent:0;text-align:start;text-decoration:none;text-decoration-line:none;text-decoration-style:solid;text-decoration-color:#000000;letter-spacing:-6.64094067px;word-spacing:0px;text-transform:none;writing-mode:lr-tb;direction:ltr;text-orientation:mixed;dominant-baseline:auto;baseline-shift:baseline;text-anchor:start;white-space:normal;shape-padding:0;clip-rule:nonzero;display:inline;overflow:visible;visibility:visible;opacity:1;isolation:auto;mix-blend-mode:normal;color-interpolation:sRGB;color-interpolation-filters:linearRGB;solid-color:#000000;solid-opacity:1;vector-effect:none;fill:#e5b13c;fill-opacity:1;fill-rule:nonzero;stroke:none;stroke-width:0.45234725;stroke-linecap:butt;stroke-linejoin:miter;stroke-miterlimit:4;stroke-dasharray:none;stroke-dashoffset:0;stroke-opacity:1;color-rendering:auto;image-rendering:auto;shape-rendering:auto;text-rendering:auto;enable-background:accumulate"
       d="m -234.35547,239.38672 c -4.50143,0 -10.14058,0.6631 -13.46484,3.5332 -2.49727,2.08789 -2.84009,4.50462 -3.03907,5.73828 l -0.043,0.26172 h 8.94531 l 0.0254,-0.19726 c 0.14549,-1.12754 1.10285,-1.86239 2.35937,-2.32813 1.25653,-0.46574 2.77897,-0.63476 3.89649,-0.63476 1.4833,0 2.33094,0.35902 2.80859,0.78711 0.47765,0.42808 0.60547,0.94049 0.60547,1.30664 0,0.35683 -0.21838,1.03413 -0.75976,1.50586 -0.92203,0.76835 -1.92563,1.10325 -3.30274,1.27539 -1.37711,0.17213 -3.11654,0.17322 -5.4414,0.27343 l -0.17188,0.006 -1.34766,5.82617 0.30469,-0.0215 c 1.71952,-0.11997 3.51439,-0.23828 5.38477,-0.23828 0.65314,0 1.67027,0.033 2.49414,0.34375 0.41193,0.15536 0.77108,0.37835 1.02539,0.6875 0.2543,0.30915 0.41406,0.70632 0.41406,1.26172 0,0.95047 -0.68687,1.70814 -1.7793,2.25195 -1.09242,0.54381 -2.56512,0.8418 -3.99414,0.8418 -1.23846,0 -2.50122,-0.17876 -3.51367,-0.625 -1.01245,-0.44625 -1.76855,-1.14288 -2.06836,-2.21094 l -0.0508,-0.17578 -8.91992,0.62695 0.006,0.2168 c 0.0614,2.55963 1.14624,4.74617 3.43164,6.25781 2.2854,1.51164 5.74716,2.36328 10.59375,2.36328 4.18827,0 8.19872,-0.78335 11.18359,-2.29101 2.98488,-1.50767 4.96289,-3.77372 4.96289,-6.69532 0,-1.86869 -0.85718,-3.39567 -2.09765,-4.5332 -1.0688,-0.9801 -2.42606,-1.62527 -3.78516,-2.04883 1.90205,-0.5124 3.59721,-1.12484 4.82813,-2.04687 1.37774,-1.03202 2.21484,-2.44705 2.21484,-4.3711 0,-1.48052 -0.60287,-3.2388 -2.37695,-4.60546 -1.77409,-1.36667 -4.69633,-2.3418 -9.32813,-2.3418 z m 0,0.45312 c 4.56821,0 7.38487,0.96471 9.05078,2.24805 1.66592,1.28334 2.20313,2.88662 2.20313,4.24609 0,1.79596 -0.74291,3.03984 -2.03516,4.00782 -1.29225,0.96798 -3.14738,1.63507 -5.31445,2.17187 v 0.43945 c 1.50795,0.3721 3.0668,1.10917 4.23633,2.18165 1.16952,1.07247 1.95312,2.4679 1.95312,4.19921 0,2.71841 -1.82167,4.83064 -4.7168,6.29297 -2.89512,1.46234 -6.84678,2.24024 -10.97851,2.24024 -4.79341,0 -8.16915,-0.84875 -10.34375,-2.28711 -2.10492,-1.39227 -3.06072,-3.34418 -3.17578,-5.67969 l 8.12304,-0.57227 c 0.37825,1.09936 1.18574,1.87196 2.22071,2.32813 1.09755,0.48376 2.41572,0.66406 3.69726,0.66406 1.49099,0 3.01774,-0.30248 4.19532,-0.88867 1.17757,-0.58619 2.02929,-1.48867 2.02929,-2.6582 0,-0.64461 -0.19618,-1.16244 -0.51562,-1.55078 -0.31945,-0.38835 -0.75178,-0.64567 -1.21485,-0.82032 -0.92613,-0.34928 -1.98744,-0.375 -2.65429,-0.375 -1.784,0 -3.47999,0.11355 -5.11328,0.22657 l 1.13476,-4.90235 c 2.20784,-0.0908 3.92838,-0.0973 5.30664,-0.26953 1.42289,-0.17786 2.53913,-0.54335 3.53711,-1.375 v -0.002 h 0.002 c 0.65553,-0.56812 0.91797,-1.32932 0.91797,-1.85156 0,-0.47386 -0.17155,-1.12262 -0.7539,-1.64454 -0.58235,-0.52191 -1.55463,-0.90234 -3.11133,-0.90234 -1.16249,0 -2.72122,0.1698 -4.05469,0.66406 -1.2546,0.46503 -2.27553,1.27945 -2.54492,2.4961 h -8.07031 c 0.20546,-1.27536 0.55894,-3.31347 2.81445,-5.19922 l 0.002,-0.002 0.002,-0.002 c 3.15615,-2.72754 8.71476,-3.42383 13.17187,-3.42383 z"
       id="path892"
       inkscape:connector-curvature="0" />
  </g>
  <g
     aria-label="KRDO"
     transform="matrix(1.9499003,0,0,1.8566775,512.39724,-693.49861)"
     style="font-style:normal;font-variant:normal;font-weight:bold;font-stretch:normal;font-size:40px;line-height:1.25;font-family:'Arthouse Owned';-inkscape-font-specification:'Arthouse Owned, Bold';font-variant-ligatures:normal;font-variant-caps:normal;font-variant-numeric:normal;font-feature-settings:normal;text-align:start;letter-spacing:-2.98740292px;word-spacing:0px;writing-mode:lr-tb;text-anchor:start;fill:#ffffff;fill-opacity:1;stroke:none"
     id="flowRoot927">
    <path
       d="m -262.66992,491.24139 h 8.88 v -11.12 h 3.92 l 12.8,11.12 h 12.56 l -17.52,-14.8 15.68,-14.16 h -12.08 l -11.2,10.64 h -4.16 v -10.64 h -8.88 z"
       style="font-style:normal;font-variant:normal;font-weight:bold;font-stretch:normal;font-family:'Eurostile LT Std';-inkscape-font-specification:'Eurostile LT Std Bold';letter-spacing:-2.98740292px;fill:#ffffff;stroke:none"
       id="path935"
       inkscape:connector-curvature="0" />
    <path
       d="m -215.29738,469.48139 h 13.88 c 2.8,0 4.08,0.48 4.08,3.04 v 0.96 c 0,2.08 -0.88,3.04 -3.28,3.04 h -14.68 z m -8.88,21.76 h 8.88 v -7.52 h 13.96 c 2.76,0 3.64,1 3.64,4.04 v 3.48 h 8.88 v -4.92 c 0,-4.76 -2.2,-5.92 -4.84,-6.4 v -0.08 c 4.08,-0.96 4.96,-3.24 4.96,-7.12 v -1.84 c 0,-5.2 -1.84,-8.6 -8.68,-8.6 h -26.8 z"
       style="font-style:normal;font-variant:normal;font-weight:bold;font-stretch:normal;font-family:'Eurostile LT Std';-inkscape-font-specification:'Eurostile LT Std Bold';letter-spacing:-2.98740292px;fill:#ffffff;stroke:none"
       id="path937"
       inkscape:connector-curvature="0" />
    <path
       d="m -185.36483,491.24139 h 26.8 c 8.88,0 12,-2.92 12,-10.08 v -8.8 c 0,-7.16 -3.12,-10.08 -12,-10.08 h -26.8 z m 8.88,-21.76 h 15.76 c 3.8,0 5.28,1.08 5.28,5.2 v 3.92 c 0,4.12 -1.48,5.2 -5.28,5.2 h -15.76 z"
       style="font-style:normal;font-variant:normal;font-weight:bold;font-stretch:normal;font-family:'Eurostile LT Std';-inkscape-font-specification:'Eurostile LT Std Bold';letter-spacing:-2.98740292px;fill:#ffffff;stroke:none"
       id="path939"
       inkscape:connector-curvature="0" />
    <path
       d="m -144.83225,481.08139 c 0,8.48 4.76,10.48 12.76,10.48 h 14.24 c 8,0 12.76,-2 12.76,-10.48 v -8.64 c 0,-8.48 -4.76,-10.48 -12.76,-10.48 h -14.24 c -8,0 -12.76,2 -12.76,10.48 z m 9.12,-5.88 c 0,-3.6 0.88,-5.8 5.56,-5.8 h 10.4 c 4.68,0 5.56,2.2 5.56,5.8 v 3.12 c 0,4.2 -0.88,5.8 -5.08,5.8 h -11.36 c -4.2,0 -5.08,-1.6 -5.08,-5.8 z"
       style="font-style:normal;font-variant:normal;font-weight:bold;font-stretch:normal;font-family:'Eurostile LT Std';-inkscape-font-specification:'Eurostile LT Std Bold';letter-spacing:-2.98740292px;fill:#ffffff;stroke:none"
       id="path941"
       inkscape:connector-curvature="0" />
  </g>
  <g
     id="g952"
     style="font-style:normal;font-variant:normal;font-weight:bold;font-stretch:normal;font-size:40px;line-height:1.25;font-family:'Arthouse Owned';-inkscape-font-specification:'Arthouse Owned, Bold';font-variant-ligatures:normal;font-variant-caps:normal;font-variant-numeric:normal;font-feature-settings:normal;text-align:start;letter-spacing:-2.98740292px;word-spacing:0px;writing-mode:lr-tb;text-anchor:start;fill:#000000;fill-opacity:1;stroke:none;stroke-width:0.22364511;stroke-miterlimit:4;stroke-dasharray:none"
     transform="matrix(1.9499003,0,0,1.8566775,512.39724,-693.49861)"
     aria-label="KRDO">
    <path
       style="color:#000000;font-style:normal;font-variant:normal;font-weight:bold;font-stretch:normal;font-size:medium;line-height:1.25;font-family:'Eurostile LT Std';-inkscape-font-specification:'Eurostile LT Std Bold';font-variant-ligatures:normal;font-variant-position:normal;font-variant-caps:normal;font-variant-numeric:normal;font-variant-alternates:normal;font-feature-settings:normal;text-indent:0;text-align:start;text-decoration:none;text-decoration-line:none;text-decoration-style:solid;text-decoration-color:#000000;letter-spacing:-2.98740292px;word-spacing:0px;text-transform:none;writing-mode:lr-tb;direction:ltr;text-orientation:mixed;dominant-baseline:auto;baseline-shift:baseline;text-anchor:start;white-space:normal;shape-padding:0;clip-rule:nonzero;display:inline;overflow:visible;visibility:visible;opacity:1;isolation:auto;mix-blend-mode:normal;color-interpolation:sRGB;color-interpolation-filters:linearRGB;solid-color:#000000;solid-opacity:1;vector-effect:none;fill:#000000;fill-opacity:1;fill-rule:nonzero;stroke:none;stroke-width:0.22364511;stroke-linecap:butt;stroke-linejoin:miter;stroke-miterlimit:4;stroke-dasharray:none;stroke-dashoffset:0;stroke-opacity:1;color-rendering:auto;image-rendering:auto;shape-rendering:auto;text-rendering:auto;enable-background:accumulate"
       d="m -262.78125,462.16992 v 29.1836 h 0.11133 8.99219 v -11.1211 h 3.76562 l 12.80078,11.1211 h 12.90625 l -17.6543,-14.91602 15.80079,-14.26758 h -12.41602 l -11.19922,10.63867 h -4.0039 v -10.63867 z m 0.22266,0.22266 h 8.65625 v 10.64062 h 4.3164 l 11.20117,-10.64062 h 11.74415 l -15.5586,14.05078 17.38281,14.68555 h -12.21093 l -12.80078,-11.11914 h -4.07422 v 11.11914 h -8.65625 z"
       id="path944"
       inkscape:connector-curvature="0" />
    <path
       style="color:#000000;font-style:normal;font-variant:normal;font-weight:bold;font-stretch:normal;font-size:medium;line-height:1.25;font-family:'Eurostile LT Std';-inkscape-font-specification:'Eurostile LT Std Bold';font-variant-ligatures:normal;font-variant-position:normal;font-variant-caps:normal;font-variant-numeric:normal;font-variant-alternates:normal;font-feature-settings:normal;text-indent:0;text-align:start;text-decoration:none;text-decoration-line:none;text-decoration-style:solid;text-decoration-color:#000000;letter-spacing:-2.98740292px;word-spacing:0px;text-transform:none;writing-mode:lr-tb;direction:ltr;text-orientation:mixed;dominant-baseline:auto;baseline-shift:baseline;text-anchor:start;white-space:normal;shape-padding:0;clip-rule:nonzero;display:inline;overflow:visible;visibility:visible;opacity:1;isolation:auto;mix-blend-mode:normal;color-interpolation:sRGB;color-interpolation-filters:linearRGB;solid-color:#000000;solid-opacity:1;vector-effect:none;fill:#000000;fill-opacity:1;fill-rule:nonzero;stroke:none;stroke-width:0.22364511;stroke-linecap:butt;stroke-linejoin:miter;stroke-miterlimit:4;stroke-dasharray:none;stroke-dashoffset:0;stroke-opacity:1;color-rendering:auto;image-rendering:auto;shape-rendering:auto;text-rendering:auto;enable-background:accumulate"
       d="m -224.28906,462.16992 v 29.1836 h 0.11133 8.99218 v -7.51954 h 13.84766 c 1.36649,0 2.23651,0.24528 2.77148,0.8418 0.53497,0.59652 0.75782,1.57673 0.75782,3.08594 v 3.5918 h 9.10351 v -5.03125 c 0,-2.39723 -0.55709,-3.91221 -1.46094,-4.88282 -0.85351,-0.91655 -2.01406,-1.3205 -3.25976,-1.56836 1.91353,-0.49121 3.15556,-1.28069 3.87305,-2.43554 0.74779,-1.20365 0.96679,-2.76639 0.96679,-4.71485 v -1.83984 c 0,-2.61319 -0.46134,-4.79216 -1.80273,-6.32227 -1.3414,-1.5301 -3.54976,-2.38867 -6.98828,-2.38867 z m 0.22265,0.22266 h 26.68946 c 3.40147,0 5.5317,0.84261 6.82031,2.3125 1.2886,1.46989 1.74805,3.58897 1.74805,6.17578 v 1.83984 c 0,1.93155 -0.2214,3.44935 -0.9336,4.59571 -0.7122,1.14635 -1.91887,1.94012 -3.9414,2.41601 l -0.0859,0.0195 v 0.26367 l 0.0918,0.0156 c 1.30978,0.23814 2.4915,0.64115 3.34765,1.56055 0.85616,0.91939 1.40039,2.36769 1.40039,4.73047 v 4.80664 h -8.65625 v -3.36719 c 0,-1.53079 -0.21747,-2.57089 -0.8125,-3.23438 -0.59503,-0.66348 -1.54595,-0.91796 -2.93945,-0.91796 h -14.07227 v 7.51953 h -8.65625 z m 8.65625,6.97656 v 0.11133 7.15234 h 14.79297 c 1.21491,0 2.06774,-0.24316 2.61719,-0.77148 0.54945,-0.52832 0.77539,-1.32509 0.77539,-2.38086 v -0.95899 c 0,-1.29863 -0.33529,-2.11075 -1.04101,-2.57421 -0.70573,-0.46347 -1.74596,-0.57813 -3.15235,-0.57813 z m 0.22461,0.22461 h 13.76758 c 1.39361,0 2.39503,0.12448 3.0293,0.54102 0.63427,0.41653 0.93945,1.12535 0.93945,2.38671 v 0.95899 c 0,1.02423 -0.21453,1.74902 -0.70508,2.2207 -0.49055,0.47168 -1.2778,0.70899 -2.46289,0.70899 h -14.56836 z"
       id="path946"
       inkscape:connector-curvature="0" />
    <path
       style="color:#000000;font-style:normal;font-variant:normal;font-weight:bold;font-stretch:normal;font-size:medium;line-height:1.25;font-family:'Eurostile LT Std';-inkscape-font-specification:'Eurostile LT Std Bold';font-variant-ligatures:normal;font-variant-position:normal;font-variant-caps:normal;font-variant-numeric:normal;font-variant-alternates:normal;font-feature-settings:normal;text-indent:0;text-align:start;text-decoration:none;text-decoration-line:none;text-decoration-style:solid;text-decoration-color:#000000;letter-spacing:-2.98740292px;word-spacing:0px;text-transform:none;writing-mode:lr-tb;direction:ltr;text-orientation:mixed;dominant-baseline:auto;baseline-shift:baseline;text-anchor:start;white-space:normal;shape-padding:0;clip-rule:nonzero;display:inline;overflow:visible;visibility:visible;opacity:1;isolation:auto;mix-blend-mode:normal;color-interpolation:sRGB;color-interpolation-filters:linearRGB;solid-color:#000000;solid-opacity:1;vector-effect:none;fill:#000000;fill-opacity:1;fill-rule:nonzero;stroke:none;stroke-width:0.22364511;stroke-linecap:butt;stroke-linejoin:miter;stroke-miterlimit:4;stroke-dasharray:none;stroke-dashoffset:0;stroke-opacity:1;color-rendering:auto;image-rendering:auto;shape-rendering:auto;text-rendering:auto;enable-background:accumulate"
       d="m -185.47656,462.16992 v 29.1836 h 0.11133 26.80078 c 4.45225,0 7.48054,-0.73047 9.40234,-2.38282 1.9218,-1.65234 2.70898,-4.21235 2.70899,-7.80859 v -8.80078 c 0,-3.59624 -0.78719,-6.15821 -2.70899,-7.81055 -1.9218,-1.65234 -4.95009,-2.38086 -9.40234,-2.38086 z m 0.22265,0.22266 h 26.68946 c 4.42774,0 7.39766,0.73047 9.25586,2.32812 1.85819,1.59766 2.63281,4.07687 2.63281,7.64063 v 8.80078 c 0,3.56376 -0.77462,6.04101 -2.63281,7.63867 -1.8582,1.59766 -4.82812,2.32813 -9.25586,2.32813 h -26.68946 z m 8.65821,6.97656 v 0.11133 14.43359 h 15.87109 c 1.91059,0 3.26245,-0.27011 4.14063,-1.08594 0.87817,-0.81582 1.25195,-2.15317 1.25195,-4.22656 v -3.91992 c 0,-2.07339 -0.37378,-3.41074 -1.25195,-4.22656 -0.87818,-0.81582 -2.23004,-1.08594 -4.14063,-1.08594 z m 0.22265,0.22461 h 15.64844 c 1.88941,0 3.17646,0.27121 3.98828,1.02539 0.81183,0.75418 1.17969,2.01589 1.17969,4.0625 v 3.91992 c 0,2.04661 -0.36786,3.30832 -1.17969,4.0625 -0.81182,0.75418 -2.09887,1.02539 -3.98828,1.02539 h -15.64844 z"
       id="path948"
       inkscape:connector-curvature="0" />
    <path
       style="color:#000000;font-style:normal;font-variant:normal;font-weight:bold;font-stretch:normal;font-size:medium;line-height:1.25;font-family:'Eurostile LT Std';-inkscape-font-specification:'Eurostile LT Std Bold';font-variant-ligatures:normal;font-variant-position:normal;font-variant-caps:normal;font-variant-numeric:normal;font-variant-alternates:normal;font-feature-settings:normal;text-indent:0;text-align:start;text-decoration:none;text-decoration-line:none;text-decoration-style:solid;text-decoration-color:#000000;letter-spacing:-2.98740292px;word-spacing:0px;text-transform:none;writing-mode:lr-tb;direction:ltr;text-orientation:mixed;dominant-baseline:auto;baseline-shift:baseline;text-anchor:start;white-space:normal;shape-padding:0;clip-rule:nonzero;display:inline;overflow:visible;visibility:visible;opacity:1;isolation:auto;mix-blend-mode:normal;color-interpolation:sRGB;color-interpolation-filters:linearRGB;solid-color:#000000;solid-opacity:1;vector-effect:none;fill:#000000;fill-opacity:1;fill-rule:nonzero;stroke:none;stroke-width:0.22364511;stroke-linecap:butt;stroke-linejoin:miter;stroke-miterlimit:4;stroke-dasharray:none;stroke-dashoffset:0;stroke-opacity:1;color-rendering:auto;image-rendering:auto;shape-rendering:auto;text-rendering:auto;enable-background:accumulate"
       d="m -132.07227,461.84961 c -4.00931,0 -7.22271,0.49686 -9.44531,2.08008 -2.2226,1.58322 -3.42578,4.25079 -3.42578,8.51172 v 8.64062 c 0,4.26092 1.20318,6.92655 3.42578,8.50977 2.2226,1.58322 5.436,2.08203 9.44531,2.08203 h 14.24024 c 4.00932,0 7.22271,-0.49881 9.44531,-2.08203 2.2226,-1.58322 3.42578,-4.24885 3.42578,-8.50977 v -8.64062 c 0,-4.26093 -1.20318,-6.9285 -3.42578,-8.51172 -2.2226,-1.58322 -5.43599,-2.08008 -9.44531,-2.08008 z m 0,0.22266 h 14.24024 c 3.99068,0 7.15705,0.50423 9.31445,2.04101 2.1574,1.53678 3.33399,4.10905 3.33399,8.32813 v 8.64062 c 0,4.21908 -1.17659,6.79135 -3.33399,8.32813 -2.1574,1.53678 -5.32377,2.03906 -9.31445,2.03906 h -14.24024 c -3.99068,0 -7.15705,-0.50228 -9.31445,-2.03906 -2.1574,-1.53678 -3.33398,-4.10905 -3.33398,-8.32813 v -8.64062 c 0,-4.21908 1.17658,-6.79135 3.33398,-8.32813 2.1574,-1.53678 5.32377,-2.04101 9.31445,-2.04101 z m 1.91993,7.21679 c -2.35753,0 -3.78923,0.55842 -4.6211,1.5918 -0.83187,1.03338 -1.05078,2.5112 -1.05078,4.32031 v 3.1211 c 0,2.10781 0.21617,3.58383 0.99024,4.54492 0.77406,0.96108 2.08697,1.36523 4.20117,1.36523 h 11.36133 c 2.1142,0 3.4271,-0.40415 4.20117,-1.36523 0.77406,-0.96109 0.99023,-2.43711 0.99023,-4.54492 v -3.1211 c 0,-1.80911 -0.21891,-3.28693 -1.05078,-4.32031 -0.83187,-1.03338 -2.26357,-1.5918 -4.62109,-1.5918 z m 0,0.22461 h 10.40039 c 2.32247,0 3.66913,0.54119 4.44726,1.50781 0.77813,0.96663 1,2.3888 1,4.17969 v 3.1211 c 0,2.09219 -0.22351,3.51538 -0.93945,4.40429 -0.71594,0.88892 -1.94154,1.28321 -4.02734,1.28321 h -11.36133 c -2.0858,0 -3.31141,-0.39429 -4.02735,-1.28321 -0.71593,-0.88891 -0.93945,-2.3121 -0.93945,-4.40429 v -3.1211 c 0,-1.79089 0.22187,-3.21306 1,-4.17969 0.77813,-0.96662 2.12479,-1.50781 4.44727,-1.50781 z"
       id="path950"
       inkscape:connector-curvature="0" />
  </g>
  <g
     aria-label="13"
     transform="matrix(5.2262404,0,0,5.2262404,1405.5039,-1251.0925)"
     style="font-style:normal;font-variant:normal;font-weight:bold;font-stretch:normal;font-size:40px;line-height:1.25;font-family:'Arthouse Owned';-inkscape-font-specification:'Arthouse Owned, Bold';font-variant-ligatures:normal;font-variant-caps:normal;font-variant-numeric:normal;font-feature-settings:normal;text-align:start;letter-spacing:-6.64094067px;word-spacing:0px;writing-mode:lr-tb;text-anchor:start;fill:url(#radialGradient974);fill-opacity:1;stroke:none;stroke-width:0.45234725;stroke-miterlimit:4;stroke-dasharray:none"
     id="g966">
    <path
       inkscape:connector-curvature="0"
       id="path962"
       d="m -257.32227,240.02734 -0.0527,0.0293 c -3.8775,2.23856 -5.09708,2.85551 -9.68359,3.61328 l -0.14844,0.0254 -1.46289,6.36328 0.30273,-0.0195 c 2.9123,-0.18911 3.76088,-0.29293 6.44141,-1.11133 l -4.33984,18.79102 h 9.78515 l 6.38281,-27.69141 h -0.2832 z m 0.11329,0.45313 h 6.54296 l -6.17578,26.78711 h -8.85547 l 4.38477,-18.98828 -0.37695,0.11718 c -2.93342,0.91432 -3.67114,0.98565 -6.40039,1.16407 l 1.25781,-5.48047 c 4.42301,-0.7436 5.85502,-1.42573 9.62305,-3.59961 z"
       style="color:#000000;font-style:italic;font-variant:normal;font-weight:bold;font-stretch:expanded;font-size:medium;line-height:1.25;font-family:Akzidenz-Grotesk;-inkscape-font-specification:'Akzidenz-Grotesk Bold Italic Expanded';font-variant-ligatures:normal;font-variant-position:normal;font-variant-caps:normal;font-variant-numeric:normal;font-variant-alternates:normal;font-feature-settings:normal;text-indent:0;text-align:start;text-decoration:none;text-decoration-line:none;text-decoration-style:solid;text-decoration-color:#000000;letter-spacing:-6.64094067px;word-spacing:0px;text-transform:none;writing-mode:lr-tb;direction:ltr;text-orientation:mixed;dominant-baseline:auto;baseline-shift:baseline;text-anchor:start;white-space:normal;shape-padding:0;clip-rule:nonzero;display:inline;overflow:visible;visibility:visible;opacity:1;isolation:auto;mix-blend-mode:normal;color-interpolation:sRGB;color-interpolation-filters:linearRGB;solid-color:#000000;solid-opacity:1;vector-effect:none;fill:url(#radialGradient1191);fill-opacity:1;fill-rule:nonzero;stroke:none;stroke-width:0.45234725;stroke-linecap:butt;stroke-linejoin:miter;stroke-miterlimit:4;stroke-dasharray:none;stroke-dashoffset:0;stroke-opacity:1;color-rendering:auto;image-rendering:auto;shape-rendering:auto;text-rendering:auto;enable-background:accumulate" />
    <path
       inkscape:connector-curvature="0"
       id="path964"
       d="m -234.35547,239.38672 c -4.50143,0 -10.14058,0.6631 -13.46484,3.5332 -2.49727,2.08789 -2.84009,4.50462 -3.03907,5.73828 l -0.043,0.26172 h 8.94531 l 0.0254,-0.19726 c 0.14549,-1.12754 1.10285,-1.86239 2.35937,-2.32813 1.25653,-0.46574 2.77897,-0.63476 3.89649,-0.63476 1.4833,0 2.33094,0.35902 2.80859,0.78711 0.47765,0.42808 0.60547,0.94049 0.60547,1.30664 0,0.35683 -0.21838,1.03413 -0.75976,1.50586 -0.92203,0.76835 -1.92563,1.10325 -3.30274,1.27539 -1.37711,0.17213 -3.11654,0.17322 -5.4414,0.27343 l -0.17188,0.006 -1.34766,5.82617 0.30469,-0.0215 c 1.71952,-0.11997 3.51439,-0.23828 5.38477,-0.23828 0.65314,0 1.67027,0.033 2.49414,0.34375 0.41193,0.15536 0.77108,0.37835 1.02539,0.6875 0.2543,0.30915 0.41406,0.70632 0.41406,1.26172 0,0.95047 -0.68687,1.70814 -1.7793,2.25195 -1.09242,0.54381 -2.56512,0.8418 -3.99414,0.8418 -1.23846,0 -2.50122,-0.17876 -3.51367,-0.625 -1.01245,-0.44625 -1.76855,-1.14288 -2.06836,-2.21094 l -0.0508,-0.17578 -8.91992,0.62695 0.006,0.2168 c 0.0614,2.55963 1.14624,4.74617 3.43164,6.25781 2.2854,1.51164 5.74716,2.36328 10.59375,2.36328 4.18827,0 8.19872,-0.78335 11.18359,-2.29101 2.98488,-1.50767 4.96289,-3.77372 4.96289,-6.69532 0,-1.86869 -0.85718,-3.39567 -2.09765,-4.5332 -1.0688,-0.9801 -2.42606,-1.62527 -3.78516,-2.04883 1.90205,-0.5124 3.59721,-1.12484 4.82813,-2.04687 1.37774,-1.03202 2.21484,-2.44705 2.21484,-4.3711 0,-1.48052 -0.60287,-3.2388 -2.37695,-4.60546 -1.77409,-1.36667 -4.69633,-2.3418 -9.32813,-2.3418 z m 0,0.45312 c 4.56821,0 7.38487,0.96471 9.05078,2.24805 1.66592,1.28334 2.20313,2.88662 2.20313,4.24609 0,1.79596 -0.74291,3.03984 -2.03516,4.00782 -1.29225,0.96798 -3.14738,1.63507 -5.31445,2.17187 v 0.43945 c 1.50795,0.3721 3.0668,1.10917 4.23633,2.18165 1.16952,1.07247 1.95312,2.4679 1.95312,4.19921 0,2.71841 -1.82167,4.83064 -4.7168,6.29297 -2.89512,1.46234 -6.84678,2.24024 -10.97851,2.24024 -4.79341,0 -8.16915,-0.84875 -10.34375,-2.28711 -2.10492,-1.39227 -3.06072,-3.34418 -3.17578,-5.67969 l 8.12304,-0.57227 c 0.37825,1.09936 1.18574,1.87196 2.22071,2.32813 1.09755,0.48376 2.41572,0.66406 3.69726,0.66406 1.49099,0 3.01774,-0.30248 4.19532,-0.88867 1.17757,-0.58619 2.02929,-1.48867 2.02929,-2.6582 0,-0.64461 -0.19618,-1.16244 -0.51562,-1.55078 -0.31945,-0.38835 -0.75178,-0.64567 -1.21485,-0.82032 -0.92613,-0.34928 -1.98744,-0.375 -2.65429,-0.375 -1.784,0 -3.47999,0.11355 -5.11328,0.22657 l 1.13476,-4.90235 c 2.20784,-0.0908 3.92838,-0.0973 5.30664,-0.26953 1.42289,-0.17786 2.53913,-0.54335 3.53711,-1.375 v -0.002 h 0.002 c 0.65553,-0.56812 0.91797,-1.32932 0.91797,-1.85156 0,-0.47386 -0.17155,-1.12262 -0.7539,-1.64454 -0.58235,-0.52191 -1.55463,-0.90234 -3.11133,-0.90234 -1.16249,0 -2.72122,0.1698 -4.05469,0.66406 -1.2546,0.46503 -2.27553,1.27945 -2.54492,2.4961 h -8.07031 c 0.20546,-1.27536 0.55894,-3.31347 2.81445,-5.19922 l 0.002,-0.002 0.002,-0.002 c 3.15615,-2.72754 8.71476,-3.42383 13.17187,-3.42383 z"
       style="color:#000000;font-style:italic;font-variant:normal;font-weight:bold;font-stretch:expanded;font-size:medium;line-height:1.25;font-family:Akzidenz-Grotesk;-inkscape-font-specification:'Akzidenz-Grotesk Bold Italic Expanded';font-variant-ligatures:normal;font-variant-position:normal;font-variant-caps:normal;font-variant-numeric:normal;font-variant-alternates:normal;font-feature-settings:normal;text-indent:0;text-align:start;text-decoration:none;text-decoration-line:none;text-decoration-style:solid;text-decoration-color:#000000;letter-spacing:-6.64094067px;word-spacing:0px;text-transform:none;writing-mode:lr-tb;direction:ltr;text-orientation:mixed;dominant-baseline:auto;baseline-shift:baseline;text-anchor:start;white-space:normal;shape-padding:0;clip-rule:nonzero;display:inline;overflow:visible;visibility:visible;opacity:1;isolation:auto;mix-blend-mode:normal;color-interpolation:sRGB;color-interpolation-filters:linearRGB;solid-color:#000000;solid-opacity:1;vector-effect:none;fill:url(#radialGradient1193);fill-opacity:1;fill-rule:nonzero;stroke:none;stroke-width:0.45234725;stroke-linecap:butt;stroke-linejoin:miter;stroke-miterlimit:4;stroke-dasharray:none;stroke-dashoffset:0;stroke-opacity:1;color-rendering:auto;image-rendering:auto;shape-rendering:auto;text-rendering:auto;enable-background:accumulate" />
  </g>
  <path
     style="color:#000000;font-style:italic;font-variant:normal;font-weight:bold;font-stretch:expanded;font-size:medium;line-height:1.25;font-family:Akzidenz-Grotesk;-inkscape-font-specification:'Akzidenz-Grotesk Bold Italic Expanded';font-variant-ligatures:normal;font-variant-position:normal;font-variant-caps:normal;font-variant-numeric:normal;font-variant-alternates:normal;font-feature-settings:normal;text-indent:0;text-align:start;text-decoration:none;text-decoration-line:none;text-decoration-style:solid;text-decoration-color:#000000;letter-spacing:-6.64094067px;word-spacing:0px;text-transform:none;writing-mode:lr-tb;direction:ltr;text-orientation:mixed;dominant-baseline:auto;baseline-shift:baseline;text-anchor:start;white-space:normal;shape-padding:0;clip-rule:nonzero;display:inline;overflow:visible;visibility:visible;opacity:1;isolation:auto;mix-blend-mode:normal;color-interpolation:sRGB;color-interpolation-filters:linearRGB;solid-color:#000000;solid-opacity:1;vector-effect:none;fill:url(#radialGradient1002);fill-opacity:1;fill-rule:nonzero;stroke:none;stroke-width:2.36407542;stroke-linecap:butt;stroke-linejoin:miter;stroke-miterlimit:4;stroke-dasharray:none;stroke-dashoffset:0;stroke-opacity:1;color-rendering:auto;image-rendering:auto;shape-rendering:auto;text-rendering:auto;enable-background:accumulate"
     d="M 60.675818,3.3480333 60.400404,3.5011657 C 40.135658,15.200417 33.761838,18.424747 9.7916369,22.385034 L 9.0158537,22.517777 1.3704396,55.773804 2.9525792,55.671883 C 18.172958,54.683551 22.607842,54.14096 36.616933,49.863807 L 13.935888,148.07022 H 65.075434 L 98.433532,3.3482314 H 96.953461 Z M 61.2679,5.7162018 H 95.462979 L 63.186868,145.71208 H 16.906056 l 22.915862,-99.237322 -1.970032,0.61241 C 22.521128,51.865624 18.665628,52.238413 4.4019113,53.170878 L 10.975527,24.528626 C 34.09124,20.642394 41.575269,17.077419 61.2679,5.7162018 Z"
     id="path994"
     inkscape:connector-curvature="0" />
  <path
     style="color:#000000;font-style:italic;font-variant:normal;font-weight:bold;font-stretch:expanded;font-size:medium;line-height:1.25;font-family:Akzidenz-Grotesk;-inkscape-font-specification:'Akzidenz-Grotesk Bold Italic Expanded';font-variant-ligatures:normal;font-variant-position:normal;font-variant-caps:normal;font-variant-numeric:normal;font-variant-alternates:normal;font-feature-settings:normal;text-indent:0;text-align:start;text-decoration:none;text-decoration-line:none;text-decoration-style:solid;text-decoration-color:#000000;letter-spacing:-6.64094067px;word-spacing:0px;text-transform:none;writing-mode:lr-tb;direction:ltr;text-orientation:mixed;dominant-baseline:auto;baseline-shift:baseline;text-anchor:start;white-space:normal;shape-padding:0;clip-rule:nonzero;display:inline;overflow:visible;visibility:visible;opacity:1;isolation:auto;mix-blend-mode:normal;color-interpolation:sRGB;color-interpolation-filters:linearRGB;solid-color:#000000;solid-opacity:1;vector-effect:none;fill:url(#radialGradient1019);fill-opacity:1;fill-rule:nonzero;stroke:none;stroke-width:2.36407542;stroke-linecap:butt;stroke-linejoin:miter;stroke-miterlimit:4;stroke-dasharray:none;stroke-dashoffset:0;stroke-opacity:1;color-rendering:auto;image-rendering:auto;shape-rendering:auto;text-rendering:auto;enable-background:accumulate"
     d="M 60.67581,3.3480454 60.400396,3.5011777 C 40.135652,15.200429 33.761832,18.424759 9.791628,22.385046 L 9.0158449,22.517789 1.3704307,55.773817 2.9525704,55.671895 C 18.172949,54.68356 22.607833,54.140972 36.616925,49.863819 L 13.935879,148.07022 H 65.075424 L 98.433523,3.3482432 h -1.480072 z m 0.592079,2.368168 H 95.46297 L 63.18686,145.71208 H 16.906046 L 39.821908,46.47477 37.851875,47.08718 C 22.521119,51.865636 18.665619,52.238425 4.4019026,53.17089 L 10.975518,24.528637 C 34.091234,20.642406 41.575259,17.077431 61.267889,5.7162134 Z"
     id="path1017"
     inkscape:connector-curvature="0" />
  <path
     inkscape:connector-curvature="0"
     id="path976"
     d="M 60.67581,3.3480454 60.400396,3.5011777 C 40.135652,15.200429 33.761832,18.424759 9.791628,22.385046 L 9.0158449,22.517789 1.3704307,55.773817 2.9525704,55.671895 C 18.172949,54.68356 22.607833,54.140972 36.616925,49.863819 L 13.935879,148.07022 H 65.075424 L 98.433523,3.3482432 h -1.480072 z m 0.592079,2.368168 H 95.46297 L 63.18686,145.71208 H 16.906046 L 39.821908,46.47477 37.851875,47.08718 C 22.521119,51.865636 18.665619,52.238425 4.4019026,53.17089 L 10.975518,24.528637 C 34.091234,20.642406 41.575259,17.077431 61.267889,5.7162134 Z"
     style="color:#000000;font-style:italic;font-variant:normal;font-weight:bold;font-stretch:expanded;font-size:medium;line-height:1.25;font-family:Akzidenz-Grotesk;-inkscape-font-specification:'Akzidenz-Grotesk Bold Italic Expanded';font-variant-ligatures:normal;font-variant-position:normal;font-variant-caps:normal;font-variant-numeric:normal;font-variant-alternates:normal;font-feature-settings:normal;text-indent:0;text-align:start;text-decoration:none;text-decoration-line:none;text-decoration-style:solid;text-decoration-color:#000000;letter-spacing:-6.64094067px;word-spacing:0px;text-transform:none;writing-mode:lr-tb;direction:ltr;text-orientation:mixed;dominant-baseline:auto;baseline-shift:baseline;text-anchor:start;white-space:normal;shape-padding:0;clip-rule:nonzero;display:inline;overflow:visible;visibility:visible;opacity:1;isolation:auto;mix-blend-mode:normal;color-interpolation:sRGB;color-interpolation-filters:linearRGB;solid-color:#000000;solid-opacity:1;vector-effect:none;fill:url(#radialGradient992);fill-opacity:1;fill-rule:nonzero;stroke:none;stroke-width:2.36407542;stroke-linecap:butt;stroke-linejoin:miter;stroke-miterlimit:4;stroke-dasharray:none;stroke-dashoffset:0;stroke-opacity:1;color-rendering:auto;image-rendering:auto;shape-rendering:auto;text-rendering:auto;enable-background:accumulate" />
  <path
     inkscape:connector-curvature="0"
     id="path978"
     d="M 180.70583,0 C 157.18028,0 127.70873,3.4655192 110.33535,18.465353 97.284011,29.377165 95.492354,42.007579 94.452434,48.454981 l -0.224746,1.36781 h 46.750342 l 0.13275,-1.030924 c 0.76037,-5.892798 5.76376,-9.733299 12.33064,-12.16737 6.56691,-2.43407 14.52355,-3.31741 20.36398,-3.31741 7.75208,0 12.18206,1.876326 14.67837,4.113628 2.49632,2.237249 3.16433,4.915226 3.16433,6.828815 0,1.864878 -1.14131,5.404612 -3.97069,7.869987 -4.81875,4.015582 -10.0638,5.76585 -17.26091,6.665494 -7.1971,0.899593 -16.28778,0.905289 -28.43806,1.429013 l -0.89828,0.03134 -7.0432,30.448963 1.59238,-0.112359 c 8.98662,-0.62699 18.36704,-1.245306 28.14211,-1.245306 3.41346,0 8.72922,0.172454 13.03496,1.796521 2.15285,0.811948 4.02985,1.977345 5.35894,3.593044 1.32904,1.615668 2.16398,3.691385 2.16398,6.594023 0,4.96739 -3.58975,8.92716 -9.29905,11.76925 -5.70925,2.84206 -13.40593,4.39943 -20.87433,4.39943 -6.4725,0 -13.07198,-0.93423 -18.36328,-3.26639 -5.29132,-2.33222 -9.24288,-5.97295 -10.80976,-11.55492 l -0.26548,-0.91865 -46.617646,3.27658 0.03134,1.13304 c 0.320889,13.37727 5.990525,24.80465 17.934576,32.70483 11.94404,7.90021 30.03604,12.35108 55.36548,12.35108 21.88891,0 42.84849,-4.09398 58.44813,-11.97335 15.5997,-7.87948 25.93726,-19.7224 25.93726,-34.99137 0,-9.766227 -4.47983,-17.746576 -10.96282,-23.691582 -5.58581,-5.122236 -12.67917,-8.494054 -19.78216,-10.707677 9.94057,-2.677925 18.79989,-5.878685 25.23297,-10.697436 7.20039,-5.393582 11.57528,-12.788872 11.57528,-22.84442 0,-7.737552 -3.15074,-16.926746 -12.4225,-24.069238 C 220.18552,5.0968995 204.9132,6.3534526e-4 180.7063,6.3534526e-4 Z m 0,2.368115 c 23.87457,0 38.59511,5.0418049 47.30156,11.748849 8.70649,6.707042 11.51408,15.086168 11.51408,22.191084 0,9.386119 -3.88262,15.886936 -10.63623,20.94583 -6.75361,5.058897 -16.44897,8.545269 -27.77459,11.350714 v 2.296674 c 7.88091,1.944684 16.02783,5.796787 22.14007,11.401828 6.1122,5.604984 10.20748,12.897827 10.20748,21.946086 0,14.20706 -9.52048,25.24608 -24.65113,32.88857 -15.1306,7.64253 -35.78291,11.70802 -57.37634,11.70802 -25.0515,0 -42.69393,-4.43577 -54.058918,-11.95299 -11.000814,-7.27633 -15.996058,-17.47747 -16.59739,-29.68342 l 42.452968,-2.99082 c 1.97682,5.74553 6.19696,9.78331 11.60596,12.16736 5.73606,2.52826 12.62513,3.47055 19.32277,3.47055 7.79227,0 15.77144,-1.58083 21.92575,-4.6444 6.15426,-3.06358 10.60556,-7.78015 10.60556,-13.8924 0,-3.368866 -1.02529,-6.07517 -2.69476,-8.10473 -1.66952,-2.029623 -3.92898,-3.374438 -6.3491,-4.287203 -4.84017,-1.825421 -10.38683,-1.959839 -13.87195,-1.959839 -9.32362,0 -18.18727,0.593438 -26.72323,1.184109 l 5.93053,-25.62086 c 11.53869,-0.474541 20.53065,-0.508513 27.73376,-1.408629 7.43638,-0.929539 13.27012,-2.839677 18.4858,-7.186078 v -0.01033 h 0.0106 c 3.42596,-2.969239 4.79754,-6.947455 4.79754,-9.676807 0,-2.476507 -0.89657,-5.867081 -3.94006,-8.594759 -3.04351,-2.727628 -8.12487,-4.715848 -16.26057,-4.715848 -6.07544,0 -14.22174,0.887417 -21.19078,3.470538 -6.55684,2.430359 -11.89247,6.686714 -13.30037,13.045218 H 97.137312 c 1.073784,-6.665356 2.921158,-17.317008 14.708988,-27.17239 l 0.0103,-0.01033 0.0103,-0.01033 C 128.36179,6.006581 157.41242,2.3676008 180.70635,2.3676008 Z"
     style="color:#000000;font-style:italic;font-variant:normal;font-weight:bold;font-stretch:expanded;font-size:medium;line-height:1.25;font-family:Akzidenz-Grotesk;-inkscape-font-specification:'Akzidenz-Grotesk Bold Italic Expanded';font-variant-ligatures:normal;font-variant-position:normal;font-variant-caps:normal;font-variant-numeric:normal;font-variant-alternates:normal;font-feature-settings:normal;text-indent:0;text-align:start;text-decoration:none;text-decoration-line:none;text-decoration-style:solid;text-decoration-color:#000000;letter-spacing:-6.64094067px;word-spacing:0px;text-transform:none;writing-mode:lr-tb;direction:ltr;text-orientation:mixed;dominant-baseline:auto;baseline-shift:baseline;text-anchor:start;white-space:normal;shape-padding:0;clip-rule:nonzero;display:inline;overflow:visible;visibility:visible;opacity:1;isolation:auto;mix-blend-mode:normal;color-interpolation:sRGB;color-interpolation-filters:linearRGB;solid-color:#000000;solid-opacity:1;vector-effect:none;fill:url(#radialGradient1012);fill-opacity:1;fill-rule:nonzero;stroke:none;stroke-width:2.36407542;stroke-linecap:butt;stroke-linejoin:miter;stroke-miterlimit:4;stroke-dasharray:none;stroke-dashoffset:0;stroke-opacity:1;color-rendering:auto;image-rendering:auto;shape-rendering:auto;text-rendering:auto;enable-background:accumulate" />
  <path
     style="color:#000000;font-style:italic;font-variant:normal;font-weight:bold;font-stretch:expanded;font-size:medium;line-height:1.25;font-family:Akzidenz-Grotesk;-inkscape-font-specification:'Akzidenz-Grotesk Bold Italic Expanded';font-variant-ligatures:normal;font-variant-position:normal;font-variant-caps:normal;font-variant-numeric:normal;font-variant-alternates:normal;font-feature-settings:normal;text-indent:0;text-align:start;text-decoration:none;text-decoration-line:none;text-decoration-style:solid;text-decoration-color:#000000;letter-spacing:-6.64094067px;word-spacing:0px;text-transform:none;writing-mode:lr-tb;direction:ltr;text-orientation:mixed;dominant-baseline:auto;baseline-shift:baseline;text-anchor:start;white-space:normal;shape-padding:0;clip-rule:nonzero;display:inline;overflow:visible;visibility:visible;opacity:1;isolation:auto;mix-blend-mode:normal;color-interpolation:sRGB;color-interpolation-filters:linearRGB;solid-color:#000000;solid-opacity:1;vector-effect:none;fill:url(#radialGradient1023);fill-opacity:1;fill-rule:nonzero;stroke:none;stroke-width:2.36407542;stroke-linecap:butt;stroke-linejoin:miter;stroke-miterlimit:4;stroke-dasharray:none;stroke-dashoffset:0;stroke-opacity:1;color-rendering:auto;image-rendering:auto;shape-rendering:auto;text-rendering:auto;enable-background:accumulate"
     d="M 60.67581,3.3480454 60.400396,3.5011777 C 40.135652,15.200429 33.761832,18.424759 9.791628,22.385046 L 9.0158449,22.517789 1.3704307,55.773817 2.9525704,55.671895 C 18.172949,54.68356 22.607833,54.140972 36.616925,49.863819 L 13.935879,148.07022 H 65.075424 L 98.433523,3.3482432 h -1.480072 z m 0.592079,2.368168 H 95.46297 L 63.18686,145.71208 H 16.906046 L 39.821908,46.47477 37.851875,47.08718 C 22.521119,51.865636 18.665619,52.238425 4.4019026,53.17089 L 10.975518,24.528637 C 34.091234,20.642406 41.575259,17.077431 61.267889,5.7162134 Z"
     id="path1021"
     inkscape:connector-curvature="0" />
  <path
     style="color:#000000;font-style:italic;font-variant:normal;font-weight:bold;font-stretch:expanded;font-size:medium;line-height:1.25;font-family:Akzidenz-Grotesk;-inkscape-font-specification:'Akzidenz-Grotesk Bold Italic Expanded';font-variant-ligatures:normal;font-variant-position:normal;font-variant-caps:normal;font-variant-numeric:normal;font-variant-alternates:normal;font-feature-settings:normal;text-indent:0;text-align:start;text-decoration:none;text-decoration-line:none;text-decoration-style:solid;text-decoration-color:#000000;letter-spacing:-6.64094067px;word-spacing:0px;text-transform:none;writing-mode:lr-tb;direction:ltr;text-orientation:mixed;dominant-baseline:auto;baseline-shift:baseline;text-anchor:start;white-space:normal;shape-padding:0;clip-rule:nonzero;display:inline;overflow:visible;visibility:visible;opacity:1;isolation:auto;mix-blend-mode:normal;color-interpolation:sRGB;color-interpolation-filters:linearRGB;solid-color:#000000;solid-opacity:1;vector-effect:none;fill:url(#radialGradient1027);fill-opacity:1;fill-rule:nonzero;stroke:none;stroke-width:2.36407542;stroke-linecap:butt;stroke-linejoin:miter;stroke-miterlimit:4;stroke-dasharray:none;stroke-dashoffset:0;stroke-opacity:1;color-rendering:auto;image-rendering:auto;shape-rendering:auto;text-rendering:auto;enable-background:accumulate"
     d="M 180.70583,0 C 157.18028,0 127.70873,3.4655192 110.33535,18.465353 97.284011,29.377165 95.492354,42.007579 94.452434,48.454981 l -0.224746,1.36781 h 46.750342 l 0.13275,-1.030924 c 0.76037,-5.892798 5.76376,-9.733299 12.33064,-12.16737 6.56691,-2.43407 14.52355,-3.31741 20.36398,-3.31741 7.75208,0 12.18206,1.876326 14.67837,4.113628 2.49632,2.237249 3.16433,4.915226 3.16433,6.828815 0,1.864878 -1.14131,5.404612 -3.97069,7.869987 -4.81875,4.015582 -10.0638,5.76585 -17.26091,6.665494 -7.1971,0.899593 -16.28778,0.905289 -28.43806,1.429013 l -0.89828,0.03134 -7.0432,30.448963 1.59238,-0.112359 c 8.98662,-0.62699 18.36704,-1.245306 28.14211,-1.245306 3.41346,0 8.72922,0.172454 13.03496,1.796521 2.15285,0.811948 4.02985,1.977345 5.35894,3.593044 1.32904,1.615668 2.16398,3.691385 2.16398,6.594023 0,4.96739 -3.58975,8.92716 -9.29905,11.76925 -5.70925,2.84206 -13.40593,4.39943 -20.87433,4.39943 -6.4725,0 -13.07198,-0.93423 -18.36328,-3.26639 -5.29132,-2.33222 -9.24288,-5.97295 -10.80976,-11.55492 l -0.26548,-0.91865 -46.617646,3.27658 0.03134,1.13304 c 0.320889,13.37727 5.990525,24.80465 17.934576,32.70483 11.94404,7.90021 30.03604,12.35108 55.36548,12.35108 21.88891,0 42.84849,-4.09398 58.44813,-11.97335 15.5997,-7.87948 25.93726,-19.7224 25.93726,-34.99137 0,-9.766227 -4.47983,-17.746576 -10.96282,-23.691582 -5.58581,-5.122236 -12.67917,-8.494054 -19.78216,-10.707677 9.94057,-2.677925 18.79989,-5.878685 25.23297,-10.697436 7.20039,-5.393582 11.57528,-12.788872 11.57528,-22.84442 0,-7.737552 -3.15074,-16.926746 -12.4225,-24.069238 C 220.18552,5.0968995 204.9132,6.3534526e-4 180.7063,6.3534526e-4 Z m 0,2.368115 c 23.87457,0 38.59511,5.0418049 47.30156,11.748849 8.70649,6.707042 11.51408,15.086168 11.51408,22.191084 0,9.386119 -3.88262,15.886936 -10.63623,20.94583 -6.75361,5.058897 -16.44897,8.545269 -27.77459,11.350714 v 2.296674 c 7.88091,1.944684 16.02783,5.796787 22.14007,11.401828 6.1122,5.604984 10.20748,12.897827 10.20748,21.946086 0,14.20706 -9.52048,25.24608 -24.65113,32.88857 -15.1306,7.64253 -35.78291,11.70802 -57.37634,11.70802 -25.0515,0 -42.69393,-4.43577 -54.058918,-11.95299 -11.000814,-7.27633 -15.996058,-17.47747 -16.59739,-29.68342 l 42.452968,-2.99082 c 1.97682,5.74553 6.19696,9.78331 11.60596,12.16736 5.73606,2.52826 12.62513,3.47055 19.32277,3.47055 7.79227,0 15.77144,-1.58083 21.92575,-4.6444 6.15426,-3.06358 10.60556,-7.78015 10.60556,-13.8924 0,-3.368866 -1.02529,-6.07517 -2.69476,-8.10473 -1.66952,-2.029623 -3.92898,-3.374438 -6.3491,-4.287203 -4.84017,-1.825421 -10.38683,-1.959839 -13.87195,-1.959839 -9.32362,0 -18.18727,0.593438 -26.72323,1.184109 l 5.93053,-25.62086 c 11.53869,-0.474541 20.53065,-0.508513 27.73376,-1.408629 7.43638,-0.929539 13.27012,-2.839677 18.4858,-7.186078 v -0.01033 h 0.0106 c 3.42596,-2.969239 4.79754,-6.947455 4.79754,-9.676807 0,-2.476507 -0.89657,-5.867081 -3.94006,-8.594759 -3.04351,-2.727628 -8.12487,-4.715848 -16.26057,-4.715848 -6.07544,0 -14.22174,0.887417 -21.19078,3.470538 -6.55684,2.430359 -11.89247,6.686714 -13.30037,13.045218 H 97.137312 c 1.073784,-6.665356 2.921158,-17.317008 14.708988,-27.17239 l 0.0103,-0.01033 0.0103,-0.01033 C 128.36179,6.006581 157.41242,2.3676008 180.70635,2.3676008 Z"
     id="path1025"
     inkscape:connector-curvature="0" />
  <path
     inkscape:connector-curvature="0"
     id="path1029"
     d="M 180.70583,0 C 157.18028,0 127.70873,3.4655192 110.33535,18.465353 97.284011,29.377165 95.492354,42.007579 94.452434,48.454981 l -0.224746,1.36781 h 46.750342 l 0.13275,-1.030924 c 0.76037,-5.892798 5.76376,-9.733299 12.33064,-12.16737 6.56691,-2.43407 14.52355,-3.31741 20.36398,-3.31741 7.75208,0 12.18206,1.876326 14.67837,4.113628 2.49632,2.237249 3.16433,4.915226 3.16433,6.828815 0,1.864878 -1.14131,5.404612 -3.97069,7.869987 -4.81875,4.015582 -10.0638,5.76585 -17.26091,6.665494 -7.1971,0.899593 -16.28778,0.905289 -28.43806,1.429013 l -0.89828,0.03134 -7.0432,30.448963 1.59238,-0.112359 c 8.98662,-0.62699 18.36704,-1.245306 28.14211,-1.245306 3.41346,0 8.72922,0.172454 13.03496,1.796521 2.15285,0.811948 4.02985,1.977345 5.35894,3.593044 1.32904,1.615668 2.16398,3.691385 2.16398,6.594023 0,4.96739 -3.58975,8.92716 -9.29905,11.76925 -5.70925,2.84206 -13.40593,4.39943 -20.87433,4.39943 -6.4725,0 -13.07198,-0.93423 -18.36328,-3.26639 -5.29132,-2.33222 -9.24288,-5.97295 -10.80976,-11.55492 l -0.26548,-0.91865 -46.617646,3.27658 0.03134,1.13304 c 0.320889,13.37727 5.990525,24.80465 17.934576,32.70483 11.94404,7.90021 30.03604,12.35108 55.36548,12.35108 21.88891,0 42.84849,-4.09398 58.44813,-11.97335 15.5997,-7.87948 25.93726,-19.7224 25.93726,-34.99137 0,-9.766227 -4.47983,-17.746576 -10.96282,-23.691582 -5.58581,-5.122236 -12.67917,-8.494054 -19.78216,-10.707677 9.94057,-2.677925 18.79989,-5.878685 25.23297,-10.697436 7.20039,-5.393582 11.57528,-12.788872 11.57528,-22.84442 0,-7.737552 -3.15074,-16.926746 -12.4225,-24.069238 C 220.18552,5.0968995 204.9132,6.3534526e-4 180.7063,6.3534526e-4 Z m 0,2.368115 c 23.87457,0 38.59511,5.0418049 47.30156,11.748849 8.70649,6.707042 11.51408,15.086168 11.51408,22.191084 0,9.386119 -3.88262,15.886936 -10.63623,20.94583 -6.75361,5.058897 -16.44897,8.545269 -27.77459,11.350714 v 2.296674 c 7.88091,1.944684 16.02783,5.796787 22.14007,11.401828 6.1122,5.604984 10.20748,12.897827 10.20748,21.946086 0,14.20706 -9.52048,25.24608 -24.65113,32.88857 -15.1306,7.64253 -35.78291,11.70802 -57.37634,11.70802 -25.0515,0 -42.69393,-4.43577 -54.058918,-11.95299 -11.000814,-7.27633 -15.996058,-17.47747 -16.59739,-29.68342 l 42.452968,-2.99082 c 1.97682,5.74553 6.19696,9.78331 11.60596,12.16736 5.73606,2.52826 12.62513,3.47055 19.32277,3.47055 7.79227,0 15.77144,-1.58083 21.92575,-4.6444 6.15426,-3.06358 10.60556,-7.78015 10.60556,-13.8924 0,-3.368866 -1.02529,-6.07517 -2.69476,-8.10473 -1.66952,-2.029623 -3.92898,-3.374438 -6.3491,-4.287203 -4.84017,-1.825421 -10.38683,-1.959839 -13.87195,-1.959839 -9.32362,0 -18.18727,0.593438 -26.72323,1.184109 l 5.93053,-25.62086 c 11.53869,-0.474541 20.53065,-0.508513 27.73376,-1.408629 7.43638,-0.929539 13.27012,-2.839677 18.4858,-7.186078 v -0.01033 h 0.0106 c 3.42596,-2.969239 4.79754,-6.947455 4.79754,-9.676807 0,-2.476507 -0.89657,-5.867081 -3.94006,-8.594759 -3.04351,-2.727628 -8.12487,-4.715848 -16.26057,-4.715848 -6.07544,0 -14.22174,0.887417 -21.19078,3.470538 -6.55684,2.430359 -11.89247,6.686714 -13.30037,13.045218 H 97.137312 c 1.073784,-6.665356 2.921158,-17.317008 14.708988,-27.17239 l 0.0103,-0.01033 0.0103,-0.01033 C 128.36179,6.006581 157.41242,2.3676008 180.70635,2.3676008 Z"
     style="color:#000000;font-style:italic;font-variant:normal;font-weight:bold;font-stretch:expanded;font-size:medium;line-height:1.25;font-family:Akzidenz-Grotesk;-inkscape-font-specification:'Akzidenz-Grotesk Bold Italic Expanded';font-variant-ligatures:normal;font-variant-position:normal;font-variant-caps:normal;font-variant-numeric:normal;font-variant-alternates:normal;font-feature-settings:normal;text-indent:0;text-align:start;text-decoration:none;text-decoration-line:none;text-decoration-style:solid;text-decoration-color:#000000;letter-spacing:-6.64094067px;word-spacing:0px;text-transform:none;writing-mode:lr-tb;direction:ltr;text-orientation:mixed;dominant-baseline:auto;baseline-shift:baseline;text-anchor:start;white-space:normal;shape-padding:0;clip-rule:nonzero;display:inline;overflow:visible;visibility:visible;opacity:1;isolation:auto;mix-blend-mode:normal;color-interpolation:sRGB;color-interpolation-filters:linearRGB;solid-color:#000000;solid-opacity:1;vector-effect:none;fill:url(#radialGradient1031);fill-opacity:1;fill-rule:nonzero;stroke:none;stroke-width:2.36407542;stroke-linecap:butt;stroke-linejoin:miter;stroke-miterlimit:4;stroke-dasharray:none;stroke-dashoffset:0;stroke-opacity:1;color-rendering:auto;image-rendering:auto;shape-rendering:auto;text-rendering:auto;enable-background:accumulate" />
  <path
     style="color:#000000;font-style:italic;font-variant:normal;font-weight:bold;font-stretch:expanded;font-size:medium;line-height:1.25;font-family:Akzidenz-Grotesk;-inkscape-font-specification:'Akzidenz-Grotesk Bold Italic Expanded';font-variant-ligatures:normal;font-variant-position:normal;font-variant-caps:normal;font-variant-numeric:normal;font-variant-alternates:normal;font-feature-settings:normal;text-indent:0;text-align:start;text-decoration:none;text-decoration-line:none;text-decoration-style:solid;text-decoration-color:#000000;letter-spacing:-6.64094067px;word-spacing:0px;text-transform:none;writing-mode:lr-tb;direction:ltr;text-orientation:mixed;dominant-baseline:auto;baseline-shift:baseline;text-anchor:start;white-space:normal;shape-padding:0;clip-rule:nonzero;display:inline;overflow:visible;visibility:visible;opacity:1;isolation:auto;mix-blend-mode:normal;color-interpolation:sRGB;color-interpolation-filters:linearRGB;solid-color:#000000;solid-opacity:1;vector-effect:none;fill:url(#radialGradient1035);fill-opacity:1;fill-rule:nonzero;stroke:none;stroke-width:2.36407542;stroke-linecap:butt;stroke-linejoin:miter;stroke-miterlimit:4;stroke-dasharray:none;stroke-dashoffset:0;stroke-opacity:1;color-rendering:auto;image-rendering:auto;shape-rendering:auto;text-rendering:auto;enable-background:accumulate"
     d="M 180.70583,0 C 157.18028,0 127.70873,3.4655192 110.33535,18.465353 97.284011,29.377165 95.492354,42.007579 94.452434,48.454981 l -0.224746,1.36781 h 46.750342 l 0.13275,-1.030924 c 0.76037,-5.892798 5.76376,-9.733299 12.33064,-12.16737 6.56691,-2.43407 14.52355,-3.31741 20.36398,-3.31741 7.75208,0 12.18206,1.876326 14.67837,4.113628 2.49632,2.237249 3.16433,4.915226 3.16433,6.828815 0,1.864878 -1.14131,5.404612 -3.97069,7.869987 -4.81875,4.015582 -10.0638,5.76585 -17.26091,6.665494 -7.1971,0.899593 -16.28778,0.905289 -28.43806,1.429013 l -0.89828,0.03134 -7.0432,30.448963 1.59238,-0.112359 c 8.98662,-0.62699 18.36704,-1.245306 28.14211,-1.245306 3.41346,0 8.72922,0.172454 13.03496,1.796521 2.15285,0.811948 4.02985,1.977345 5.35894,3.593044 1.32904,1.615668 2.16398,3.691385 2.16398,6.594023 0,4.96739 -3.58975,8.92716 -9.29905,11.76925 -5.70925,2.84206 -13.40593,4.39943 -20.87433,4.39943 -6.4725,0 -13.07198,-0.93423 -18.36328,-3.26639 -5.29132,-2.33222 -9.24288,-5.97295 -10.80976,-11.55492 l -0.26548,-0.91865 -46.617646,3.27658 0.03134,1.13304 c 0.320889,13.37727 5.990525,24.80465 17.934576,32.70483 11.94404,7.90021 30.03604,12.35108 55.36548,12.35108 21.88891,0 42.84849,-4.09398 58.44813,-11.97335 15.5997,-7.87948 25.93726,-19.7224 25.93726,-34.99137 0,-9.766227 -4.47983,-17.746576 -10.96282,-23.691582 -5.58581,-5.122236 -12.67917,-8.494054 -19.78216,-10.707677 9.94057,-2.677925 18.79989,-5.878685 25.23297,-10.697436 7.20039,-5.393582 11.57528,-12.788872 11.57528,-22.84442 0,-7.737552 -3.15074,-16.926746 -12.4225,-24.069238 C 220.18552,5.0968995 204.9132,6.3534526e-4 180.7063,6.3534526e-4 Z m 0,2.368115 c 23.87457,0 38.59511,5.0418049 47.30156,11.748849 8.70649,6.707042 11.51408,15.086168 11.51408,22.191084 0,9.386119 -3.88262,15.886936 -10.63623,20.94583 -6.75361,5.058897 -16.44897,8.545269 -27.77459,11.350714 v 2.296674 c 7.88091,1.944684 16.02783,5.796787 22.14007,11.401828 6.1122,5.604984 10.20748,12.897827 10.20748,21.946086 0,14.20706 -9.52048,25.24608 -24.65113,32.88857 -15.1306,7.64253 -35.78291,11.70802 -57.37634,11.70802 -25.0515,0 -42.69393,-4.43577 -54.058918,-11.95299 -11.000814,-7.27633 -15.996058,-17.47747 -16.59739,-29.68342 l 42.452968,-2.99082 c 1.97682,5.74553 6.19696,9.78331 11.60596,12.16736 5.73606,2.52826 12.62513,3.47055 19.32277,3.47055 7.79227,0 15.77144,-1.58083 21.92575,-4.6444 6.15426,-3.06358 10.60556,-7.78015 10.60556,-13.8924 0,-3.368866 -1.02529,-6.07517 -2.69476,-8.10473 -1.66952,-2.029623 -3.92898,-3.374438 -6.3491,-4.287203 -4.84017,-1.825421 -10.38683,-1.959839 -13.87195,-1.959839 -9.32362,0 -18.18727,0.593438 -26.72323,1.184109 l 5.93053,-25.62086 c 11.53869,-0.474541 20.53065,-0.508513 27.73376,-1.408629 7.43638,-0.929539 13.27012,-2.839677 18.4858,-7.186078 v -0.01033 h 0.0106 c 3.42596,-2.969239 4.79754,-6.947455 4.79754,-9.676807 0,-2.476507 -0.89657,-5.867081 -3.94006,-8.594759 -3.04351,-2.727628 -8.12487,-4.715848 -16.26057,-4.715848 -6.07544,0 -14.22174,0.887417 -21.19078,3.470538 -6.55684,2.430359 -11.89247,6.686714 -13.30037,13.045218 H 97.137312 c 1.073784,-6.665356 2.921158,-17.317008 14.708988,-27.17239 l 0.0103,-0.01033 0.0103,-0.01033 C 128.36179,6.006581 157.41242,2.3676008 180.70635,2.3676008 Z"
     id="path1033"
     inkscape:connector-curvature="0" />
  <path
     inkscape:connector-curvature="0"
     id="path1037"
     d="M 180.70583,0 C 157.18028,0 127.70873,3.4655192 110.33535,18.465353 97.284011,29.377165 95.492354,42.007579 94.452434,48.454981 l -0.224746,1.36781 h 46.750342 l 0.13275,-1.030924 c 0.76037,-5.892798 5.76376,-9.733299 12.33064,-12.16737 6.56691,-2.43407 14.52355,-3.31741 20.36398,-3.31741 7.75208,0 12.18206,1.876326 14.67837,4.113628 2.49632,2.237249 3.16433,4.915226 3.16433,6.828815 0,1.864878 -1.14131,5.404612 -3.97069,7.869987 -4.81875,4.015582 -10.0638,5.76585 -17.26091,6.665494 -7.1971,0.899593 -16.28778,0.905289 -28.43806,1.429013 l -0.89828,0.03134 -7.0432,30.448963 1.59238,-0.112359 c 8.98662,-0.62699 18.36704,-1.245306 28.14211,-1.245306 3.41346,0 8.72922,0.172454 13.03496,1.796521 2.15285,0.811948 4.02985,1.977345 5.35894,3.593044 1.32904,1.615668 2.16398,3.691385 2.16398,6.594023 0,4.96739 -3.58975,8.92716 -9.29905,11.76925 -5.70925,2.84206 -13.40593,4.39943 -20.87433,4.39943 -6.4725,0 -13.07198,-0.93423 -18.36328,-3.26639 -5.29132,-2.33222 -9.24288,-5.97295 -10.80976,-11.55492 l -0.26548,-0.91865 -46.617646,3.27658 0.03134,1.13304 c 0.320889,13.37727 5.990525,24.80465 17.934576,32.70483 11.94404,7.90021 30.03604,12.35108 55.36548,12.35108 21.88891,0 42.84849,-4.09398 58.44813,-11.97335 15.5997,-7.87948 25.93726,-19.7224 25.93726,-34.99137 0,-9.766227 -4.47983,-17.746576 -10.96282,-23.691582 -5.58581,-5.122236 -12.67917,-8.494054 -19.78216,-10.707677 9.94057,-2.677925 18.79989,-5.878685 25.23297,-10.697436 7.20039,-5.393582 11.57528,-12.788872 11.57528,-22.84442 0,-7.737552 -3.15074,-16.926746 -12.4225,-24.069238 C 220.18552,5.0968995 204.9132,6.3534526e-4 180.7063,6.3534526e-4 Z m 0,2.368115 c 23.87457,0 38.59511,5.0418049 47.30156,11.748849 8.70649,6.707042 11.51408,15.086168 11.51408,22.191084 0,9.386119 -3.88262,15.886936 -10.63623,20.94583 -6.75361,5.058897 -16.44897,8.545269 -27.77459,11.350714 v 2.296674 c 7.88091,1.944684 16.02783,5.796787 22.14007,11.401828 6.1122,5.604984 10.20748,12.897827 10.20748,21.946086 0,14.20706 -9.52048,25.24608 -24.65113,32.88857 -15.1306,7.64253 -35.78291,11.70802 -57.37634,11.70802 -25.0515,0 -42.69393,-4.43577 -54.058918,-11.95299 -11.000814,-7.27633 -15.996058,-17.47747 -16.59739,-29.68342 l 42.452968,-2.99082 c 1.97682,5.74553 6.19696,9.78331 11.60596,12.16736 5.73606,2.52826 12.62513,3.47055 19.32277,3.47055 7.79227,0 15.77144,-1.58083 21.92575,-4.6444 6.15426,-3.06358 10.60556,-7.78015 10.60556,-13.8924 0,-3.368866 -1.02529,-6.07517 -2.69476,-8.10473 -1.66952,-2.029623 -3.92898,-3.374438 -6.3491,-4.287203 -4.84017,-1.825421 -10.38683,-1.959839 -13.87195,-1.959839 -9.32362,0 -18.18727,0.593438 -26.72323,1.184109 l 5.93053,-25.62086 c 11.53869,-0.474541 20.53065,-0.508513 27.73376,-1.408629 7.43638,-0.929539 13.27012,-2.839677 18.4858,-7.186078 v -0.01033 h 0.0106 c 3.42596,-2.969239 4.79754,-6.947455 4.79754,-9.676807 0,-2.476507 -0.89657,-5.867081 -3.94006,-8.594759 -3.04351,-2.727628 -8.12487,-4.715848 -16.26057,-4.715848 -6.07544,0 -14.22174,0.887417 -21.19078,3.470538 -6.55684,2.430359 -11.89247,6.686714 -13.30037,13.045218 H 97.137312 c 1.073784,-6.665356 2.921158,-17.317008 14.708988,-27.17239 l 0.0103,-0.01033 0.0103,-0.01033 C 128.36179,6.006581 157.41242,2.3676008 180.70635,2.3676008 Z"
     style="color:#000000;font-style:italic;font-variant:normal;font-weight:bold;font-stretch:expanded;font-size:medium;line-height:1.25;font-family:Akzidenz-Grotesk;-inkscape-font-specification:'Akzidenz-Grotesk Bold Italic Expanded';font-variant-ligatures:normal;font-variant-position:normal;font-variant-caps:normal;font-variant-numeric:normal;font-variant-alternates:normal;font-feature-settings:normal;text-indent:0;text-align:start;text-decoration:none;text-decoration-line:none;text-decoration-style:solid;text-decoration-color:#000000;letter-spacing:-6.64094067px;word-spacing:0px;text-transform:none;writing-mode:lr-tb;direction:ltr;text-orientation:mixed;dominant-baseline:auto;baseline-shift:baseline;text-anchor:start;white-space:normal;shape-padding:0;clip-rule:nonzero;display:inline;overflow:visible;visibility:visible;opacity:1;isolation:auto;mix-blend-mode:normal;color-interpolation:sRGB;color-interpolation-filters:linearRGB;solid-color:#000000;solid-opacity:1;vector-effect:none;fill:url(#radialGradient1039);fill-opacity:1;fill-rule:nonzero;stroke:none;stroke-width:2.36407542;stroke-linecap:butt;stroke-linejoin:miter;stroke-miterlimit:4;stroke-dasharray:none;stroke-dashoffset:0;stroke-opacity:1;color-rendering:auto;image-rendering:auto;shape-rendering:auto;text-rendering:auto;enable-background:accumulate" />
  <path
     style="color:#000000;font-style:italic;font-variant:normal;font-weight:bold;font-stretch:expanded;font-size:medium;line-height:1.25;font-family:Akzidenz-Grotesk;-inkscape-font-specification:'Akzidenz-Grotesk Bold Italic Expanded';font-variant-ligatures:normal;font-variant-position:normal;font-variant-caps:normal;font-variant-numeric:normal;font-variant-alternates:normal;font-feature-settings:normal;text-indent:0;text-align:start;text-decoration:none;text-decoration-line:none;text-decoration-style:solid;text-decoration-color:#000000;letter-spacing:-6.64094067px;word-spacing:0px;text-transform:none;writing-mode:lr-tb;direction:ltr;text-orientation:mixed;dominant-baseline:auto;baseline-shift:baseline;text-anchor:start;white-space:normal;shape-padding:0;clip-rule:nonzero;display:inline;overflow:visible;visibility:visible;opacity:1;isolation:auto;mix-blend-mode:normal;color-interpolation:sRGB;color-interpolation-filters:linearRGB;solid-color:#000000;solid-opacity:1;vector-effect:none;fill:url(#radialGradient1043);fill-opacity:1;fill-rule:nonzero;stroke:none;stroke-width:2.36407542;stroke-linecap:butt;stroke-linejoin:miter;stroke-miterlimit:4;stroke-dasharray:none;stroke-dashoffset:0;stroke-opacity:1;color-rendering:auto;image-rendering:auto;shape-rendering:auto;text-rendering:auto;enable-background:accumulate"
     d="M 180.70583,0 C 157.18028,0 127.70873,3.4655192 110.33535,18.465353 97.284011,29.377165 95.492354,42.007579 94.452434,48.454981 l -0.224746,1.36781 h 46.750342 l 0.13275,-1.030924 c 0.76037,-5.892798 5.76376,-9.733299 12.33064,-12.16737 6.56691,-2.43407 14.52355,-3.31741 20.36398,-3.31741 7.75208,0 12.18206,1.876326 14.67837,4.113628 2.49632,2.237249 3.16433,4.915226 3.16433,6.828815 0,1.864878 -1.14131,5.404612 -3.97069,7.869987 -4.81875,4.015582 -10.0638,5.76585 -17.26091,6.665494 -7.1971,0.899593 -16.28778,0.905289 -28.43806,1.429013 l -0.89828,0.03134 -7.0432,30.448963 1.59238,-0.112359 c 8.98662,-0.62699 18.36704,-1.245306 28.14211,-1.245306 3.41346,0 8.72922,0.172454 13.03496,1.796521 2.15285,0.811948 4.02985,1.977345 5.35894,3.593044 1.32904,1.615668 2.16398,3.691385 2.16398,6.594023 0,4.96739 -3.58975,8.92716 -9.29905,11.76925 -5.70925,2.84206 -13.40593,4.39943 -20.87433,4.39943 -6.4725,0 -13.07198,-0.93423 -18.36328,-3.26639 -5.29132,-2.33222 -9.24288,-5.97295 -10.80976,-11.55492 l -0.26548,-0.91865 -46.617646,3.27658 0.03134,1.13304 c 0.320889,13.37727 5.990525,24.80465 17.934576,32.70483 11.94404,7.90021 30.03604,12.35108 55.36548,12.35108 21.88891,0 42.84849,-4.09398 58.44813,-11.97335 15.5997,-7.87948 25.93726,-19.7224 25.93726,-34.99137 0,-9.766227 -4.47983,-17.746576 -10.96282,-23.691582 -5.58581,-5.122236 -12.67917,-8.494054 -19.78216,-10.707677 9.94057,-2.677925 18.79989,-5.878685 25.23297,-10.697436 7.20039,-5.393582 11.57528,-12.788872 11.57528,-22.84442 0,-7.737552 -3.15074,-16.926746 -12.4225,-24.069238 C 220.18552,5.0968995 204.9132,6.3534526e-4 180.7063,6.3534526e-4 Z m 0,2.368115 c 23.87457,0 38.59511,5.0418049 47.30156,11.748849 8.70649,6.707042 11.51408,15.086168 11.51408,22.191084 0,9.386119 -3.88262,15.886936 -10.63623,20.94583 -6.75361,5.058897 -16.44897,8.545269 -27.77459,11.350714 v 2.296674 c 7.88091,1.944684 16.02783,5.796787 22.14007,11.401828 6.1122,5.604984 10.20748,12.897827 10.20748,21.946086 0,14.20706 -9.52048,25.24608 -24.65113,32.88857 -15.1306,7.64253 -35.78291,11.70802 -57.37634,11.70802 -25.0515,0 -42.69393,-4.43577 -54.058918,-11.95299 -11.000814,-7.27633 -15.996058,-17.47747 -16.59739,-29.68342 l 42.452968,-2.99082 c 1.97682,5.74553 6.19696,9.78331 11.60596,12.16736 5.73606,2.52826 12.62513,3.47055 19.32277,3.47055 7.79227,0 15.77144,-1.58083 21.92575,-4.6444 6.15426,-3.06358 10.60556,-7.78015 10.60556,-13.8924 0,-3.368866 -1.02529,-6.07517 -2.69476,-8.10473 -1.66952,-2.029623 -3.92898,-3.374438 -6.3491,-4.287203 -4.84017,-1.825421 -10.38683,-1.959839 -13.87195,-1.959839 -9.32362,0 -18.18727,0.593438 -26.72323,1.184109 l 5.93053,-25.62086 c 11.53869,-0.474541 20.53065,-0.508513 27.73376,-1.408629 7.43638,-0.929539 13.27012,-2.839677 18.4858,-7.186078 v -0.01033 h 0.0106 c 3.42596,-2.969239 4.79754,-6.947455 4.79754,-9.676807 0,-2.476507 -0.89657,-5.867081 -3.94006,-8.594759 -3.04351,-2.727628 -8.12487,-4.715848 -16.26057,-4.715848 -6.07544,0 -14.22174,0.887417 -21.19078,3.470538 -6.55684,2.430359 -11.89247,6.686714 -13.30037,13.045218 H 97.137312 c 1.073784,-6.665356 2.921158,-17.317008 14.708988,-27.17239 l 0.0103,-0.01033 0.0103,-0.01033 C 128.36179,6.006581 157.41242,2.3676008 180.70635,2.3676008 Z"
     id="path1041"
     inkscape:connector-curvature="0" />
  <path
     inkscape:connector-curvature="0"
     id="path1045"
     d="M 180.70583,0 C 157.18028,0 127.70873,3.4655192 110.33535,18.465353 97.284011,29.377165 95.492354,42.007579 94.452434,48.454981 l -0.224746,1.36781 h 46.750342 l 0.13275,-1.030924 c 0.76037,-5.892798 5.76376,-9.733299 12.33064,-12.16737 6.56691,-2.43407 14.52355,-3.31741 20.36398,-3.31741 7.75208,0 12.18206,1.876326 14.67837,4.113628 2.49632,2.237249 3.16433,4.915226 3.16433,6.828815 0,1.864878 -1.14131,5.404612 -3.97069,7.869987 -4.81875,4.015582 -10.0638,5.76585 -17.26091,6.665494 -7.1971,0.899593 -16.28778,0.905289 -28.43806,1.429013 l -0.89828,0.03134 -7.0432,30.448963 1.59238,-0.112359 c 8.98662,-0.62699 18.36704,-1.245306 28.14211,-1.245306 3.41346,0 8.72922,0.172454 13.03496,1.796521 2.15285,0.811948 4.02985,1.977345 5.35894,3.593044 1.32904,1.615668 2.16398,3.691385 2.16398,6.594023 0,4.96739 -3.58975,8.92716 -9.29905,11.76925 -5.70925,2.84206 -13.40593,4.39943 -20.87433,4.39943 -6.4725,0 -13.07198,-0.93423 -18.36328,-3.26639 -5.29132,-2.33222 -9.24288,-5.97295 -10.80976,-11.55492 l -0.26548,-0.91865 -46.617646,3.27658 0.03134,1.13304 c 0.320889,13.37727 5.990525,24.80465 17.934576,32.70483 11.94404,7.90021 30.03604,12.35108 55.36548,12.35108 21.88891,0 42.84849,-4.09398 58.44813,-11.97335 15.5997,-7.87948 25.93726,-19.7224 25.93726,-34.99137 0,-9.766227 -4.47983,-17.746576 -10.96282,-23.691582 -5.58581,-5.122236 -12.67917,-8.494054 -19.78216,-10.707677 9.94057,-2.677925 18.79989,-5.878685 25.23297,-10.697436 7.20039,-5.393582 11.57528,-12.788872 11.57528,-22.84442 0,-7.737552 -3.15074,-16.926746 -12.4225,-24.069238 C 220.18552,5.0968995 204.9132,6.3534526e-4 180.7063,6.3534526e-4 Z m 0,2.368115 c 23.87457,0 38.59511,5.0418049 47.30156,11.748849 8.70649,6.707042 11.51408,15.086168 11.51408,22.191084 0,9.386119 -3.88262,15.886936 -10.63623,20.94583 -6.75361,5.058897 -16.44897,8.545269 -27.77459,11.350714 v 2.296674 c 7.88091,1.944684 16.02783,5.796787 22.14007,11.401828 6.1122,5.604984 10.20748,12.897827 10.20748,21.946086 0,14.20706 -9.52048,25.24608 -24.65113,32.88857 -15.1306,7.64253 -35.78291,11.70802 -57.37634,11.70802 -25.0515,0 -42.69393,-4.43577 -54.058918,-11.95299 -11.000814,-7.27633 -15.996058,-17.47747 -16.59739,-29.68342 l 42.452968,-2.99082 c 1.97682,5.74553 6.19696,9.78331 11.60596,12.16736 5.73606,2.52826 12.62513,3.47055 19.32277,3.47055 7.79227,0 15.77144,-1.58083 21.92575,-4.6444 6.15426,-3.06358 10.60556,-7.78015 10.60556,-13.8924 0,-3.368866 -1.02529,-6.07517 -2.69476,-8.10473 -1.66952,-2.029623 -3.92898,-3.374438 -6.3491,-4.287203 -4.84017,-1.825421 -10.38683,-1.959839 -13.87195,-1.959839 -9.32362,0 -18.18727,0.593438 -26.72323,1.184109 l 5.93053,-25.62086 c 11.53869,-0.474541 20.53065,-0.508513 27.73376,-1.408629 7.43638,-0.929539 13.27012,-2.839677 18.4858,-7.186078 v -0.01033 h 0.0106 c 3.42596,-2.969239 4.79754,-6.947455 4.79754,-9.676807 0,-2.476507 -0.89657,-5.867081 -3.94006,-8.594759 -3.04351,-2.727628 -8.12487,-4.715848 -16.26057,-4.715848 -6.07544,0 -14.22174,0.887417 -21.19078,3.470538 -6.55684,2.430359 -11.89247,6.686714 -13.30037,13.045218 H 97.137312 c 1.073784,-6.665356 2.921158,-17.317008 14.708988,-27.17239 l 0.0103,-0.01033 0.0103,-0.01033 C 128.36179,6.006581 157.41242,2.3676008 180.70635,2.3676008 Z"
     style="color:#000000;font-style:italic;font-variant:normal;font-weight:bold;font-stretch:expanded;font-size:medium;line-height:1.25;font-family:Akzidenz-Grotesk;-inkscape-font-specification:'Akzidenz-Grotesk Bold Italic Expanded';font-variant-ligatures:normal;font-variant-position:normal;font-variant-caps:normal;font-variant-numeric:normal;font-variant-alternates:normal;font-feature-settings:normal;text-indent:0;text-align:start;text-decoration:none;text-decoration-line:none;text-decoration-style:solid;text-decoration-color:#000000;letter-spacing:-6.64094067px;word-spacing:0px;text-transform:none;writing-mode:lr-tb;direction:ltr;text-orientation:mixed;dominant-baseline:auto;baseline-shift:baseline;text-anchor:start;white-space:normal;shape-padding:0;clip-rule:nonzero;display:inline;overflow:visible;visibility:visible;opacity:1;isolation:auto;mix-blend-mode:normal;color-interpolation:sRGB;color-interpolation-filters:linearRGB;solid-color:#000000;solid-opacity:1;vector-effect:none;fill:url(#radialGradient1047);fill-opacity:1;fill-rule:nonzero;stroke:none;stroke-width:2.36407542;stroke-linecap:butt;stroke-linejoin:miter;stroke-miterlimit:4;stroke-dasharray:none;stroke-dashoffset:0;stroke-opacity:1;color-rendering:auto;image-rendering:auto;shape-rendering:auto;text-rendering:auto;enable-background:accumulate" />
  <path
     style="color:#000000;font-style:italic;font-variant:normal;font-weight:bold;font-stretch:expanded;font-size:medium;line-height:1.25;font-family:Akzidenz-Grotesk;-inkscape-font-specification:'Akzidenz-Grotesk Bold Italic Expanded';font-variant-ligatures:normal;font-variant-position:normal;font-variant-caps:normal;font-variant-numeric:normal;font-variant-alternates:normal;font-feature-settings:normal;text-indent:0;text-align:start;text-decoration:none;text-decoration-line:none;text-decoration-style:solid;text-decoration-color:#000000;letter-spacing:-6.64094067px;word-spacing:0px;text-transform:none;writing-mode:lr-tb;direction:ltr;text-orientation:mixed;dominant-baseline:auto;baseline-shift:baseline;text-anchor:start;white-space:normal;shape-padding:0;clip-rule:nonzero;display:inline;overflow:visible;visibility:visible;opacity:1;isolation:auto;mix-blend-mode:normal;color-interpolation:sRGB;color-interpolation-filters:linearRGB;solid-color:#000000;solid-opacity:1;vector-effect:none;fill:url(#radialGradient1051);fill-opacity:1;fill-rule:nonzero;stroke:none;stroke-width:2.36407542;stroke-linecap:butt;stroke-linejoin:miter;stroke-miterlimit:4;stroke-dasharray:none;stroke-dashoffset:0;stroke-opacity:1;color-rendering:auto;image-rendering:auto;shape-rendering:auto;text-rendering:auto;enable-background:accumulate"
     d="M 180.70583,0 C 157.18028,0 127.70873,3.4655192 110.33535,18.465353 97.284011,29.377165 95.492354,42.007579 94.452434,48.454981 l -0.224746,1.36781 h 46.750342 l 0.13275,-1.030924 c 0.76037,-5.892798 5.76376,-9.733299 12.33064,-12.16737 6.56691,-2.43407 14.52355,-3.31741 20.36398,-3.31741 7.75208,0 12.18206,1.876326 14.67837,4.113628 2.49632,2.237249 3.16433,4.915226 3.16433,6.828815 0,1.864878 -1.14131,5.404612 -3.97069,7.869987 -4.81875,4.015582 -10.0638,5.76585 -17.26091,6.665494 -7.1971,0.899593 -16.28778,0.905289 -28.43806,1.429013 l -0.89828,0.03134 -7.0432,30.448963 1.59238,-0.112359 c 8.98662,-0.62699 18.36704,-1.245306 28.14211,-1.245306 3.41346,0 8.72922,0.172454 13.03496,1.796521 2.15285,0.811948 4.02985,1.977345 5.35894,3.593044 1.32904,1.615668 2.16398,3.691385 2.16398,6.594023 0,4.96739 -3.58975,8.92716 -9.29905,11.76925 -5.70925,2.84206 -13.40593,4.39943 -20.87433,4.39943 -6.4725,0 -13.07198,-0.93423 -18.36328,-3.26639 -5.29132,-2.33222 -9.24288,-5.97295 -10.80976,-11.55492 l -0.26548,-0.91865 -46.617646,3.27658 0.03134,1.13304 c 0.320889,13.37727 5.990525,24.80465 17.934576,32.70483 11.94404,7.90021 30.03604,12.35108 55.36548,12.35108 21.88891,0 42.84849,-4.09398 58.44813,-11.97335 15.5997,-7.87948 25.93726,-19.7224 25.93726,-34.99137 0,-9.766227 -4.47983,-17.746576 -10.96282,-23.691582 -5.58581,-5.122236 -12.67917,-8.494054 -19.78216,-10.707677 9.94057,-2.677925 18.79989,-5.878685 25.23297,-10.697436 7.20039,-5.393582 11.57528,-12.788872 11.57528,-22.84442 0,-7.737552 -3.15074,-16.926746 -12.4225,-24.069238 C 220.18552,5.0968995 204.9132,6.3534526e-4 180.7063,6.3534526e-4 Z m 0,2.368115 c 23.87457,0 38.59511,5.0418049 47.30156,11.748849 8.70649,6.707042 11.51408,15.086168 11.51408,22.191084 0,9.386119 -3.88262,15.886936 -10.63623,20.94583 -6.75361,5.058897 -16.44897,8.545269 -27.77459,11.350714 v 2.296674 c 7.88091,1.944684 16.02783,5.796787 22.14007,11.401828 6.1122,5.604984 10.20748,12.897827 10.20748,21.946086 0,14.20706 -9.52048,25.24608 -24.65113,32.88857 -15.1306,7.64253 -35.78291,11.70802 -57.37634,11.70802 -25.0515,0 -42.69393,-4.43577 -54.058918,-11.95299 -11.000814,-7.27633 -15.996058,-17.47747 -16.59739,-29.68342 l 42.452968,-2.99082 c 1.97682,5.74553 6.19696,9.78331 11.60596,12.16736 5.73606,2.52826 12.62513,3.47055 19.32277,3.47055 7.79227,0 15.77144,-1.58083 21.92575,-4.6444 6.15426,-3.06358 10.60556,-7.78015 10.60556,-13.8924 0,-3.368866 -1.02529,-6.07517 -2.69476,-8.10473 -1.66952,-2.029623 -3.92898,-3.374438 -6.3491,-4.287203 -4.84017,-1.825421 -10.38683,-1.959839 -13.87195,-1.959839 -9.32362,0 -18.18727,0.593438 -26.72323,1.184109 l 5.93053,-25.62086 c 11.53869,-0.474541 20.53065,-0.508513 27.73376,-1.408629 7.43638,-0.929539 13.27012,-2.839677 18.4858,-7.186078 v -0.01033 h 0.0106 c 3.42596,-2.969239 4.79754,-6.947455 4.79754,-9.676807 0,-2.476507 -0.89657,-5.867081 -3.94006,-8.594759 -3.04351,-2.727628 -8.12487,-4.715848 -16.26057,-4.715848 -6.07544,0 -14.22174,0.887417 -21.19078,3.470538 -6.55684,2.430359 -11.89247,6.686714 -13.30037,13.045218 H 97.137312 c 1.073784,-6.665356 2.921158,-17.317008 14.708988,-27.17239 l 0.0103,-0.01033 0.0103,-0.01033 C 128.36179,6.006581 157.41242,2.3676008 180.70635,2.3676008 Z"
     id="path1049"
     inkscape:connector-curvature="0" />
  <g
     id="surface1"
     transform="matrix(0.09431813,0,0,0.09122573,210.53274,67.015183)">
    <g
       clip-path="url(#clip1)"
       clip-rule="nonzero"
       id="g9">
      <path
         style="fill:#07111e;fill-opacity:1;fill-rule:nonzero;stroke:none"
         d="M 488.90625,0 C 218.89062,0 0,218.89453 0,488.91406 c 0,270.01172 218.89062,488.90625 488.90625,488.90625 270.01953,0 488.91406,-218.89453 488.91406,-488.90625 C 977.82031,218.89453 758.92578,0 488.90625,0"
         id="path7" />
    </g>
    <path
       style="fill:#f0f0f0;fill-opacity:1;fill-rule:evenodd;stroke:none"
       d="m 775.97656,354.91016 c -74.09765,0 -134.16797,60.07031 -134.16797,134.16796 0,74.09766 60.07032,134.16797 134.16797,134.16797 67.12891,-0.0781 123.875,-49.76562 132.8086,-116.28515 h -76.57032 c -7.58203,23.85156 -29.88672,41.1289 -56.23828,41.1289 -32.58984,0 -59,-26.42187 -59,-59 0,-32.58984 26.42188,-59 59,-59.01172 26.35156,0 48.66797,17.27735 56.23828,41.12891 h 76.58203 C 899.85156,404.66406 843.10547,354.98828 775.97656,354.91016 M 201.21484,548.07812 c -32.58984,0 -59,-26.42187 -59,-59.01171 0,-32.58985 26.42188,-59 59,-59 32.58985,0 59,26.42187 59,59 0,32.60156 -26.42187,59.01171 -59,59.01171 m 134.16797,72.89844 V 489.07812 c 0,-74.09765 -60.07031,-134.16796 -134.16797,-134.16796 -74.09765,0 -134.167965,60.07031 -134.167965,134.16796 0,74.09766 60.070315,134.16797 134.167965,134.16797 21.86328,-0.0351 44.52735,-9.32031 60.5,-24.76562 v 22.49609 z M 488.30078,430.07812 c 32.58984,0 59,26.42188 59,59.01172 0,32.59375 -26.42187,59 -59,59 -32.58984,0 -59,-26.42187 -59,-59 0,-32.60156 26.41016,-59.01172 59,-59.01172 M 354.13281,288.87891 v 200.19921 c 0,74.09766 60.07031,134.16797 134.16797,134.16797 74.10547,0 134.16797,-60.07031 134.16797,-134.16797 0,-74.09765 -60.0625,-134.16796 -134.16797,-134.16796 -20.45703,0.0312 -41.63672,6.54296 -59,18.30859 v -84.33984 z m 0,0"
       id="path11" />
  </g>
</svg>
