<?xml version="1.0" encoding="UTF-8" standalone="no"?>
<!-- Created with Inkscape (http://www.inkscape.org/) -->

<svg
   width="270.93335mm"
   height="166.17244mm"
   viewBox="0 0 270.93334 166.17244"
   version="1.1"
   id="svg49682"
   inkscape:version="1.1.2 (b8e25be833, 2022-02-05)"
   sodipodi:docname="KXRM_(2022).svg"
   xmlns:inkscape="http://www.inkscape.org/namespaces/inkscape"
   xmlns:sodipodi="http://sodipodi.sourceforge.net/DTD/sodipodi-0.dtd"
   xmlns="http://www.w3.org/2000/svg"
   xmlns:svg="http://www.w3.org/2000/svg">
  <sodipodi:namedview
     id="namedview49684"
     pagecolor="#505050"
     bordercolor="#eeeeee"
     borderopacity="1"
     inkscape:pageshadow="0"
     inkscape:pageopacity="0"
     inkscape:pagecheckerboard="0"
     inkscape:document-units="px"
     showgrid="false"
     inkscape:zoom="0.2169227"
     inkscape:cx="-707.62535"
     inkscape:cy="516.31296"
     inkscape:window-width="1366"
     inkscape:window-height="715"
     inkscape:window-x="-8"
     inkscape:window-y="-8"
     inkscape:window-maximized="1"
     inkscape:current-layer="svg49682"
     inkscape:snap-bbox="true"
     inkscape:bbox-nodes="true"
     inkscape:bbox-paths="true"
     inkscape:snap-bbox-midpoints="true"
     inkscape:snap-bbox-edge-midpoints="true"
     inkscape:object-paths="true"
     inkscape:snap-intersection-paths="true"
     inkscape:snap-smooth-nodes="true"
     inkscape:snap-midpoints="true" />
  <defs
     id="defs49679" />
  <g
     id="g81848"
     style="stroke:none">
    <path
       id="rect50019"
       style="opacity:1;vector-effect:none;fill:white;fill-rule:evenodd;stroke:none;stroke-width:3;stop-color:black;stop-opacity:1"
       d="M 0,0 H 270.93333 V 166.17244 H 0 Z" />
    <path
       id="path50214"
       style="opacity:1;vector-effect:none;fill:blue;fill-rule:evenodd;stroke:none;stroke-width:2.75566;stop-color:black;stop-opacity:1"
       d="M 0,0 H 270.93333 V 140.20479 H 0 Z" />
    <path
       id="path50164"
       style="opacity:1;vector-effect:none;fill:blue;fill-rule:evenodd;stroke:none;stroke-width:1.11094;stop-color:black;stop-opacity:1"
       d="m 0,143.38513 h 270.93333 v 22.78731 H 0 Z" />
    <path
       id="path50439"
       style="opacity:1;vector-effect:none;fill:#b91313;fill-opacity:1;fill-rule:evenodd;stroke:none;stroke-width:1.4858;stop-color:black;stop-opacity:1"
       d="M 0,0 H 78.7649 V 140.20479 H 0 Z" />
    <path
       d="m 27.115308,117.66771 h 7.032688 V 102.80307 H 48.85327 v 14.86464 H 66.274848 V 132.9322 H 12.330019 v -32.44713 l 14.784846,-1.039093 z"
       id="path176"
       style="fill:#efefef;fill-opacity:1;stroke:none;stroke-width:0.221649" />
    <path
       d="m 20.622557,55.867209 c 5.169066,-5.064005 11.408916,-7.597448 18.718221,-7.597448 7.362279,0 13.627619,2.533664 18.797351,7.597448 5.168844,5.064891 7.753267,11.173526 7.753267,18.326347 0,7.205351 -2.584423,13.341249 -7.753267,18.405032 -5.16951,5.065113 -11.435072,7.597002 -18.797351,7.597002 -7.309526,0 -13.549155,-2.531889 -18.718221,-7.597002 -5.169067,-5.063783 -7.753711,-11.199681 -7.753711,-18.405032 0,-7.1526 2.584644,-13.261456 7.753711,-18.326347 z m 29.525806,22.712329 c 1.202,0 2.245743,-0.443076 3.133002,-1.331443 0.888368,-0.887038 1.331665,-1.958044 1.331665,-3.211023 0,-1.253201 -0.443297,-2.310465 -1.331665,-3.172013 -0.887259,-0.861769 -1.931002,-1.292433 -3.133002,-1.292433 H 28.29736 c -1.252979,0 -2.322655,0.430664 -3.211023,1.292433 -0.887037,0.861327 -1.331443,1.91859 -1.331443,3.172013 0,1.252979 0.444406,2.323763 1.331443,3.211023 0.888368,0.888589 1.958044,1.331443 3.211023,1.331443 z"
       id="path178"
       style="fill:#efefef;fill-opacity:1;stroke:none;stroke-width:0.221649" />
    <path
       d="m 66.434878,24.455173 -13.666408,7.671701 13.666408,7.43232 V 56.34198 L 38.462828,40.358237 12.330462,55.462922 V 38.200488 L 23.998486,31.886828 12.330462,25.493597 V 8.7910473 L 38.303241,23.575893 66.434878,7.2725329 Z"
       id="path180"
       style="fill:#efefef;fill-opacity:1;stroke:none;stroke-width:0.221649" />
    <path
       id="path76196"
       style="font-weight:900;font-size:113.386px;font-family:Arial;-inkscape-font-specification:'Arial Heavy';letter-spacing:-26.2614px;baseline-shift:baseline;fill:white;stroke:none;stroke-width:32.0969"
       d="m 223.1285,0 c -4.07482,8.6511266 -9.71683,15.922922 -16.9261,21.815722 -2.58284,2.111195 -5.54685,4.111895 -8.87801,6.005834 1.31079,3.873283 1.97042,7.982829 1.97042,12.331031 0,7.622325 -2.04612,14.933707 -6.12366,21.936646 1.64822,-0.721934 3.20264,-1.45188 4.66225,-2.18953 5.8928,-2.9464 11.97335,-6.801832 18.2423,-11.566221 v 91.871398 h 38.74234 V 0 Z" />
    <path
       d="M 196.26642,140.2048 H 81.35679 q 1.97472,-17.02018 11.94233,-31.97158 10.06163,-15.045454 37.61362,-35.450854 16.83209,-12.50652 21.53381,-18.99489 4.7017,-6.48834 4.7017,-12.31847 0,-6.300266 -4.7017,-10.719866 -4.60767,-4.51365 -11.66023,-4.51365 -7.33465,0 -12.03637,4.60768 -4.60767,4.60767 -6.20624,16.267896 L 84.1778,44.007946 Q 86.43463,27.83409 92.45281,18.80681 98.47099,9.6855 109.37895,4.88977 120.38092,0 139.75194,0 q 20.21733,0 31.40738,4.60766 11.28408,4.60767 17.6784,14.19915 6.48836,9.49745 6.48836,21.34573 0,12.600576 -7.4287,24.072716 -7.33465,11.47216 -26.7997,25.20115 -11.5662,7.99289 -15.51563,11.190044 -3.85539,3.19717 -9.1213,8.36903 h 59.80567 z"
       style="font-weight:900;font-size:113.386px;font-family:Arial;-inkscape-font-specification:'Arial Heavy';letter-spacing:-26.2614px;baseline-shift:baseline;fill:white;stroke:none;stroke-width:32.0968"
       id="path76194" />
    <path
       d="m 193.13995,154.74936 q 0,1.42248 -0.49517,2.6469 -0.48616,1.22441 -1.37746,2.13371 -0.89129,0.9003 -2.15174,1.41347 -1.25141,0.51318 -2.78192,0.51318 -1.53051,0 -2.79093,-0.51318 -1.26043,-0.51317 -2.16073,-1.41347 -0.89131,-0.9093 -1.38648,-2.13371 -0.48615,-1.22442 -0.48615,-2.6469 0,-1.42247 0.48615,-2.64688 0.49517,-1.22442 1.38648,-2.12472 0.9003,-0.9003 2.16073,-1.41347 1.26042,-0.51318 2.79093,-0.51318 1.53051,0 2.78192,0.52218 1.26045,0.51317 2.15174,1.41348 0.8913,0.9003 1.37746,2.12471 0.49517,1.22441 0.49517,2.63788 z m -3.11505,0 q 0,-0.97232 -0.25209,-1.74658 -0.25208,-0.78326 -0.72924,-1.32344 -0.46815,-0.54019 -1.15238,-0.82829 -0.68424,-0.28809 -1.55753,-0.28809 -0.88229,0 -1.57553,0.28809 -0.68422,0.2881 -1.1614,0.82829 -0.46815,0.54018 -0.72023,1.32344 -0.25209,0.77426 -0.25209,1.74658 0,0.98134 0.25209,1.7646 0.25208,0.77426 0.72023,1.31444 0.47718,0.54018 1.1614,0.82828 0.69324,0.27909 1.57553,0.27909 0.87329,0 1.55753,-0.27909 0.68423,-0.2881 1.15238,-0.82828 0.47716,-0.54018 0.72924,-1.31444 0.25209,-0.78326 0.25209,-1.7646 z"
       style="font-weight:900;font-size:113.386px;font-family:Lato;-inkscape-font-specification:'Lato Heavy';letter-spacing:-4.96256px;word-spacing:3.34179px;baseline-shift:baseline;fill:white;stroke:none;stroke-width:3.001"
       id="path65325" />
    <path
       id="path67123"
       style="vector-effect:none;fill:white;fill-rule:evenodd;stroke:none;stroke-width:0.311957;stop-color:black"
       d="m 176.90436,147.45852 c -3.85174,1e-4 -6.97412,3.27748 -6.97408,7.32027 -4e-5,4.04279 3.12234,7.32017 6.97408,7.32027 3.34591,-3e-5 6.22034,-2.4941 6.8497,-5.94328 h -1.53596 v -3.15303 h 1.452 c -0.77635,-3.25839 -3.56574,-5.54416 -6.76574,-5.54423 z"
       sodipodi:nodetypes="cccccccc" />
    <path
       id="path67547"
       style="vector-effect:none;fill:#bf0a30;fill-opacity:1;fill-rule:evenodd;stroke:none;stroke-width:0.311957;stop-color:black"
       d="m 176.90436,148.46133 c -3.28286,9e-5 -5.97131,2.79105 -5.97127,6.31746 -4e-5,3.52641 2.68841,6.31737 5.97127,6.31746 2.84169,1.5e-4 5.23684,-2.09129 5.82978,-4.94047 h -2.77522 c -0.50609,1.26123 -1.68771,2.13215 -3.05456,2.13207 -1.82342,-4e-5 -3.3163,-1.55037 -3.31628,-3.50906 -2e-5,-1.95869 1.49286,-3.50902 3.31628,-3.50907 1.21649,-6e-5 2.28333,0.69211 2.86073,1.73303 h 2.87214 c -0.72464,-2.64309 -3.02569,-4.54156 -5.73287,-4.54142 z" />
    <path
       id="circle55121"
       style="fill:#ffd700;stroke:none;stroke-width:0.0120415"
       d="m 179.21829,154.77931 a 2.3141946,2.5062536 0 0 1 -2.3142,2.50625 2.3141946,2.5062536 0 0 1 -2.31419,-2.50625 2.3141946,2.5062536 0 0 1 2.31419,-2.50626 2.3141946,2.5062536 0 0 1 2.3142,2.50626 z" />
    <path
       d="m 6.4823,148.19516 h 2.55687 q 0.39613,0 0.65722,0.18006 0.27008,0.18007 0.35112,0.47717 l 1.80059,6.84229 q 0.0901,0.33312 0.18007,0.71124 0.0901,0.37813 0.13505,0.79227 0.0901,-0.42314 0.19806,-0.79227 0.10803,-0.37812 0.20707,-0.71124 l 2.12472,-6.84229 q 0.081,-0.2521 0.34211,-0.45015 0.27009,-0.20708 0.64821,-0.20708 h 0.9003 q 0.39614,0 0.64822,0.18006 0.26109,0.17106 0.36012,0.47717 l 2.10672,6.84229 q 0.099,0.31511 0.20706,0.67523 0.10804,0.35111 0.18906,0.75625 0.072,-0.39613 0.14406,-0.75625 0.081,-0.36012 0.16205,-0.67523 l 1.80061,-6.84229 q 0.072,-0.26109 0.34211,-0.45916 0.2701,-0.19807 0.64822,-0.19807 h 2.3948 l -4.05136,13.11741 h -2.75492 l -2.46683,-8.12973 q -0.063,-0.18907 -0.13505,-0.41414 -0.063,-0.22508 -0.12604,-0.47716 -0.063,0.25208 -0.13504,0.47716 -0.063,0.22507 -0.12605,0.41414 l -2.50284,8.12973 h -2.75492 z"
       style="font-weight:900;font-size:113.386px;font-family:Lato;-inkscape-font-specification:'Lato Heavy';letter-spacing:-4.96256px;word-spacing:3.34179px;baseline-shift:baseline;fill:white;stroke:none;stroke-width:3.001"
       id="path65297" />
    <path
       d="m 34.41387,148.19516 v 2.34079 h -5.38381 v 3.06103 h 4.12338 v 2.25075 h -4.12338 v 3.12405 h 5.38381 v 2.34079 h -8.44484 v -13.11741 z"
       style="font-weight:900;font-size:113.386px;font-family:Lato;-inkscape-font-specification:'Lato Heavy';letter-spacing:-4.96256px;word-spacing:3.34179px;baseline-shift:baseline;fill:white;stroke:none;stroke-width:3.001"
       id="path65299" />
    <path
       d="m 50.78029,161.31257 h -2.3588 q -0.39612,0 -0.65721,-0.18006 -0.25209,-0.18907 -0.35112,-0.47716 l -0.77427,-2.28677 h -4.98767 l -0.77426,2.28677 q -0.0901,0.25209 -0.35111,0.45915 -0.26109,0.19807 -0.63922,0.19807 h -2.37681 l 5.07771,-13.11741 h 3.11505 z m -8.42684,-5.01469 h 3.58321 l -1.20641,-3.5922 q -0.11703,-0.34211 -0.27909,-0.80127 -0.15305,-0.46816 -0.3061,-1.00834 -0.14405,0.54919 -0.2971,1.01734 -0.15305,0.46816 -0.2881,0.81028 z"
       style="font-weight:900;font-size:113.386px;font-family:Lato;-inkscape-font-specification:'Lato Heavy';letter-spacing:-4.96256px;word-spacing:3.34179px;baseline-shift:baseline;fill:white;stroke:none;stroke-width:3.001"
       id="path65301" />
    <path
       d="m 54.09759,156.45994 v 4.85263 H 51.05457 V 148.19516 H 55.322 q 1.42248,0 2.42181,0.29711 1.00834,0.28809 1.63856,0.81027 0.63921,0.52217 0.9273,1.23341 0.2881,0.71124 0.2881,1.54852 0,0.63922 -0.17106,1.2064 -0.17105,0.5672 -0.51317,1.05336 -0.33311,0.47716 -0.82827,0.85528 -0.48617,0.37814 -1.12539,0.62121 0.30611,0.15305 0.5672,0.37814 0.27009,0.22507 0.46816,0.54918 l 2.79094,4.56453 h -2.75494 q -0.76525,0 -1.09837,-0.57619 l -2.17873,-3.80828 q -0.14404,-0.25209 -0.34211,-0.36013 -0.18906,-0.10803 -0.54019,-0.10803 z m 0,-2.09771 H 55.322 q 0.6212,0 1.05335,-0.15304 0.44116,-0.16206 0.72025,-0.44116 0.27909,-0.27909 0.40514,-0.64822 0.12604,-0.37812 0.12604,-0.81027 0,-0.86428 -0.5672,-1.35045 -0.55819,-0.48616 -1.73758,-0.48616 h -1.22441 z"
       style="font-weight:900;font-size:113.386px;font-family:Lato;-inkscape-font-specification:'Lato Heavy';letter-spacing:-4.96256px;word-spacing:3.34179px;baseline-shift:baseline;fill:white;stroke:none;stroke-width:3.001"
       id="path65303" />
    <path
       d="m 70.68538,148.19516 v 2.34079 h -5.38381 v 3.06103 h 4.12338 v 2.25075 h -4.12338 v 3.12405 h 5.38381 v 2.34079 h -8.44484 v -13.11741 z"
       style="font-weight:900;font-size:113.386px;font-family:Lato;-inkscape-font-specification:'Lato Heavy';letter-spacing:-4.96256px;word-spacing:3.34179px;baseline-shift:baseline;fill:white;stroke:none;stroke-width:3.001"
       id="path65305" />
    <path
       d="m 82.15415,150.86006 q -0.13504,0.21607 -0.28809,0.32411 -0.14405,0.10804 -0.37813,0.10804 -0.20707,0 -0.45015,-0.12605 -0.23408,-0.13504 -0.54018,-0.29709 -0.2971,-0.16206 -0.68423,-0.28811 -0.38713,-0.13504 -0.8823,-0.13504 -0.85529,0 -1.27843,0.36912 -0.41414,0.36012 -0.41414,0.98133 0,0.39614 0.25209,0.65723 0.25208,0.26108 0.65722,0.45015 0.41414,0.18906 0.93631,0.35111 0.53118,0.15305 1.08037,0.35112 0.54918,0.18907 1.07136,0.45015 0.53117,0.26109 0.93631,0.66623 0.41414,0.40513 0.66622,0.99032 0.25209,0.57621 0.25209,1.39548 0,0.90931 -0.31511,1.70157 -0.3151,0.79227 -0.91831,1.38646 -0.5942,0.5852 -1.47649,0.92732 -0.87329,0.33311 -1.98967,0.33311 -0.61221,0 -1.25142,-0.12604 -0.63021,-0.12605 -1.22441,-0.35112 -0.5942,-0.23408 -1.11638,-0.54919 -0.52217,-0.3151 -0.9093,-0.70223 l 0.9003,-1.42248 q 0.099,-0.16205 0.27909,-0.26108 0.18006,-0.099 0.38713,-0.099 0.27009,0 0.54019,0.17105 0.27909,0.17106 0.6212,0.37813 0.35112,0.20706 0.80127,0.37812 0.45015,0.17106 1.06236,0.17106 0.82828,0 1.28743,-0.36012 0.45916,-0.36913 0.45916,-1.16139 0,-0.45915 -0.25209,-0.74725 -0.25208,-0.2881 -0.66622,-0.47717 -0.40514,-0.18906 -0.92731,-0.3331 -0.52218,-0.14406 -1.07136,-0.31512 -0.54919,-0.18005 -1.07136,-0.43213 -0.52218,-0.26109 -0.93632,-0.67523 -0.40513,-0.42314 -0.65722,-1.04435 -0.25208,-0.63022 -0.25208,-1.54853 0,-0.73824 0.2971,-1.44048 0.2971,-0.70224 0.87329,-1.25142 0.57619,-0.54919 1.41347,-0.87329 0.83729,-0.33312 1.91765,-0.33312 0.6032,0 1.17039,0.099 0.5762,0.0901 1.08937,0.27909 0.51317,0.18006 0.95432,0.44115 0.45015,0.25208 0.80127,0.57619 z"
       style="font-weight:900;font-size:113.386px;font-family:Lato;-inkscape-font-specification:'Lato Heavy';letter-spacing:-4.96256px;word-spacing:3.34179px;baseline-shift:baseline;fill:white;stroke:none;stroke-width:3.001"
       id="path65307" />
    <path
       d="m 96.76126,154.74936 q 0,1.42248 -0.49517,2.6469 -0.48616,1.22441 -1.37746,2.13371 -0.8913,0.9003 -2.15173,1.41347 -1.25142,0.51318 -2.78193,0.51318 -1.53052,0 -2.79094,-0.51318 -1.26042,-0.51317 -2.16073,-1.41347 -0.89129,-0.9093 -1.38646,-2.13371 -0.48616,-1.22442 -0.48616,-2.6469 0,-1.42247 0.48616,-2.64688 0.49517,-1.22442 1.38646,-2.12472 0.90031,-0.9003 2.16073,-1.41347 1.26042,-0.51318 2.79094,-0.51318 1.53051,0 2.78193,0.52218 1.26043,0.51317 2.15173,1.41348 0.8913,0.9003 1.37746,2.12471 0.49517,1.22441 0.49517,2.63788 z m -3.11505,0 q 0,-0.97232 -0.25209,-1.74658 -0.25208,-0.78326 -0.72924,-1.32344 -0.46816,-0.54019 -1.15239,-0.82829 -0.68423,-0.28809 -1.55752,-0.28809 -0.8823,0 -1.57553,0.28809 -0.68423,0.2881 -1.16139,0.82829 -0.46816,0.54018 -0.72024,1.32344 -0.25209,0.77426 -0.25209,1.74658 0,0.98134 0.25209,1.7646 0.25208,0.77426 0.72024,1.31444 0.47716,0.54018 1.16139,0.82828 0.69323,0.27909 1.57553,0.27909 0.87329,0 1.55752,-0.27909 0.68423,-0.2881 1.15239,-0.82828 0.47716,-0.54018 0.72924,-1.31444 0.25209,-0.78326 0.25209,-1.7646 z"
       style="font-weight:900;font-size:113.386px;font-family:Lato;-inkscape-font-specification:'Lato Heavy';letter-spacing:-4.96256px;word-spacing:3.34179px;baseline-shift:baseline;fill:white;stroke:none;stroke-width:3.001"
       id="path65309" />
    <path
       d="m 102.88749,158.90876 q 0.61221,0 1.08937,-0.19807 0.48616,-0.20706 0.81928,-0.58519 0.33311,-0.37813 0.50416,-0.91831 0.18007,-0.54919 0.18007,-1.24241 v -7.76962 h 3.04302 v 7.76962 q 0,1.2064 -0.39614,2.21474 -0.38713,1.00834 -1.11637,1.73758 -0.72925,0.72925 -1.7736,1.13438 -1.04435,0.40514 -2.34979,0.40514 -1.31444,0 -2.35879,-0.40514 -1.04435,-0.40513 -1.77359,-1.13438 -0.72925,-0.72924 -1.11638,-1.73758 -0.38713,-1.00834 -0.38713,-2.21474 v -7.76962 h 3.04302 v 7.76061 q 0,0.69324 0.17106,1.24242 0.18006,0.54018 0.51317,0.92731 0.33312,0.37813 0.81027,0.58519 0.48617,0.19807 1.09837,0.19807 z"
       style="font-weight:900;font-size:113.386px;font-family:Lato;-inkscape-font-specification:'Lato Heavy';letter-spacing:-4.96256px;word-spacing:3.34179px;baseline-shift:baseline;fill:white;stroke:none;stroke-width:3.001"
       id="path65311" />
    <path
       d="m 119.24118,148.19516 v 2.41282 h -3.69124 v 10.70459 h -3.04303 v -10.70459 h -3.69123 v -2.41282 z"
       style="font-weight:900;font-size:113.386px;font-family:Lato;-inkscape-font-specification:'Lato Heavy';letter-spacing:-4.96256px;word-spacing:3.34179px;baseline-shift:baseline;fill:white;stroke:none;stroke-width:3.001"
       id="path65313" />
    <path
       d="m 131.1654,161.31257 h -3.06103 v -5.54586 h -5.3298 v 5.54586 h -3.06102 v -13.11741 h 3.06102 v 5.48284 h 5.3298 v -5.48284 h 3.06103 z"
       style="font-weight:900;font-size:113.386px;font-family:Lato;-inkscape-font-specification:'Lato Heavy';letter-spacing:-4.96256px;word-spacing:3.34179px;baseline-shift:baseline;fill:white;stroke:none;stroke-width:3.001"
       id="path65315" />
    <path
       d="m 140.9829,148.19516 v 2.34079 h -5.38381 v 3.06103 h 4.12339 v 2.25075 h -4.12339 v 3.12405 h 5.38381 v 2.34079 h -8.44483 v -13.11741 z"
       style="font-weight:900;font-size:113.386px;font-family:Lato;-inkscape-font-specification:'Lato Heavy';letter-spacing:-4.96256px;word-spacing:3.34179px;baseline-shift:baseline;fill:white;stroke:none;stroke-width:3.001"
       id="path65317" />
    <path
       d="m 144.96644,156.45994 v 4.85263 h -3.04302 v -13.11741 h 4.26744 q 1.42248,0 2.42181,0.29711 1.00834,0.28809 1.63855,0.81027 0.63922,0.52217 0.92731,1.23341 0.2881,0.71124 0.2881,1.54852 0,0.63922 -0.17105,1.2064 -0.17106,0.5672 -0.51318,1.05336 -0.33311,0.47716 -0.82828,0.85528 -0.48616,0.37814 -1.12538,0.62121 0.30611,0.15305 0.56719,0.37814 0.2701,0.22507 0.46816,0.54918 l 2.79094,4.56453 h -2.75493 q -0.76525,0 -1.09837,-0.57619 L 146.623,156.9281 q -0.14405,-0.25209 -0.34211,-0.36013 -0.18906,-0.10803 -0.54018,-0.10803 z m 0,-2.09771 h 1.22442 q 0.6212,0 1.05335,-0.15304 0.44115,-0.16206 0.72024,-0.44116 0.27909,-0.27909 0.40514,-0.64822 0.12604,-0.37812 0.12604,-0.81027 0,-0.86428 -0.56719,-1.35045 -0.55819,-0.48616 -1.73758,-0.48616 h -1.22442 z"
       style="font-weight:900;font-size:113.386px;font-family:Lato;-inkscape-font-specification:'Lato Heavy';letter-spacing:-4.96256px;word-spacing:3.34179px;baseline-shift:baseline;fill:white;stroke:none;stroke-width:3.001"
       id="path65319" />
    <path
       d="m 154.71193,148.19516 q 0.19806,0 0.33311,0.0179 0.13505,0.0181 0.24308,0.072 0.10804,0.045 0.20707,0.13505 0.099,0.0901 0.22507,0.24307 l 6.2301,7.87766 q -0.036,-0.37813 -0.0541,-0.72925 -0.0179,-0.36012 -0.0179,-0.67523 v -6.94133 h 2.68289 v 13.11747 h -1.58452 q -0.35113,0 -0.59421,-0.10804 -0.24308,-0.10803 -0.46816,-0.39613 l -6.18507,-7.81463 q 0.027,0.34212 0.045,0.67523 0.018,0.32411 0.018,0.61221 v 7.03136 h -2.68298 v -13.11741 z"
       style="font-weight:900;font-size:113.386px;font-family:Lato;-inkscape-font-specification:'Lato Heavy';letter-spacing:-4.96256px;word-spacing:3.34179px;baseline-shift:baseline;fill:white;stroke:none;stroke-width:3.001"
       id="path65321" />
    <path
       d="m 196.85337,158.88175 h 4.86163 v 2.43082 h -7.90465 v -13.11741 h 3.04302 z"
       style="font-weight:900;font-size:113.386px;font-family:Lato;-inkscape-font-specification:'Lato Heavy';letter-spacing:-4.96256px;word-spacing:3.34179px;baseline-shift:baseline;fill:white;stroke:none;stroke-width:3.001"
       id="path65327" />
    <path
       d="m 214.59349,154.74936 q 0,1.42248 -0.49517,2.6469 -0.48616,1.22441 -1.37746,2.13371 -0.89129,0.9003 -2.15171,1.41347 -1.25144,0.51318 -2.78195,0.51318 -1.53051,0 -2.79093,-0.51318 -1.26042,-0.51317 -2.16072,-1.41347 -0.89131,-0.9093 -1.38649,-2.13371 -0.48616,-1.22442 -0.48616,-2.6469 0,-1.42247 0.48616,-2.64688 0.49518,-1.22442 1.38649,-2.12472 0.9003,-0.9003 2.16072,-1.41347 1.26042,-0.51318 2.79093,-0.51318 1.53051,0 2.78195,0.52218 1.26042,0.51317 2.15171,1.41348 0.8913,0.9003 1.37746,2.12471 0.49517,1.22441 0.49517,2.63788 z m -3.11506,0 q 0,-0.97232 -0.25208,-1.74658 -0.25208,-0.78326 -0.72924,-1.32344 -0.46815,-0.54019 -1.15238,-0.82829 -0.68424,-0.28809 -1.55753,-0.28809 -0.88229,0 -1.57554,0.28809 -0.68421,0.2881 -1.16139,0.82829 -0.46815,0.54018 -0.72023,1.32344 -0.25208,0.77426 -0.25208,1.74658 0,0.98134 0.25208,1.7646 0.25208,0.77426 0.72023,1.31444 0.47718,0.54018 1.16139,0.82828 0.69325,0.27909 1.57554,0.27909 0.87329,0 1.55753,-0.27909 0.68423,-0.2881 1.15238,-0.82828 0.47716,-0.54018 0.72924,-1.31444 0.25208,-0.78326 0.25208,-1.7646 z"
       style="font-weight:900;font-size:113.386px;font-family:Lato;-inkscape-font-specification:'Lato Heavy';letter-spacing:-4.96256px;word-spacing:3.34179px;baseline-shift:baseline;fill:white;stroke:none;stroke-width:3.001"
       id="path65329" />
    <path
       d="m 218.30692,156.45994 v 4.85263 h -3.04302 v -13.11741 h 4.26744 q 1.42248,0 2.42182,0.29711 1.00833,0.28809 1.63854,0.81027 0.63921,0.52217 0.92731,1.23341 0.2881,0.71124 0.2881,1.54852 0,0.63922 -0.17106,1.2064 -0.17105,0.5672 -0.51317,1.05336 -0.33311,0.47716 -0.82827,0.85528 -0.48617,0.37814 -1.12539,0.62121 0.30611,0.15305 0.5672,0.37814 0.27008,0.22507 0.46815,0.54918 l 2.79095,4.56453 h -2.75493 q -0.76526,0 -1.09837,-0.57619 l -2.17872,-3.80828 q -0.14406,-0.25209 -0.34214,-0.36013 -0.18905,-0.10803 -0.54018,-0.10803 z m 0,-2.09771 h 1.22442 q 0.62121,0 1.05336,-0.15304 0.44114,-0.16206 0.72023,-0.44116 0.2791,-0.27909 0.40514,-0.64822 0.12604,-0.37812 0.12604,-0.81027 0,-0.86428 -0.56719,-1.35045 -0.55818,-0.48616 -1.73758,-0.48616 h -1.22442 z"
       style="font-weight:900;font-size:113.386px;font-family:Lato;-inkscape-font-specification:'Lato Heavy';letter-spacing:-4.96256px;word-spacing:3.34179px;baseline-shift:baseline;fill:white;stroke:none;stroke-width:3.001"
       id="path65331" />
    <path
       d="m 238.65797,161.31257 h -2.35879 q -0.39612,0 -0.65721,-0.18006 -0.25209,-0.18907 -0.35114,-0.47716 l -0.77426,-2.28677 h -4.98767 l -0.77426,2.28677 q -0.09,0.25209 -0.35111,0.45915 -0.26109,0.19807 -0.63921,0.19807 h -2.37681 l 5.07771,-13.11741 h 3.11505 z m -8.42682,-5.01469 h 3.58319 l -1.2064,-3.5922 q -0.11704,-0.34211 -0.2791,-0.80127 -0.15304,-0.46816 -0.30609,-1.00834 -0.14405,0.54919 -0.29711,1.01734 -0.15305,0.46816 -0.2881,0.81028 z"
       style="font-weight:900;font-size:113.386px;font-family:Lato;-inkscape-font-specification:'Lato Heavy';letter-spacing:-4.96256px;word-spacing:3.34179px;baseline-shift:baseline;fill:white;stroke:none;stroke-width:3.001"
       id="path65333" />
    <path
       d="m 250.83426,154.74936 q 0,1.42248 -0.49516,2.62889 -0.48618,1.1974 -1.37747,2.0797 -0.89131,0.87329 -2.15172,1.36846 -1.25143,0.48616 -2.78193,0.48616 h -5.09572 v -13.11741 h 5.09572 q 1.5305,0 2.78193,0.49517 1.26041,0.49516 2.15172,1.36846 0.89129,0.8733 1.37747,2.0797 0.49516,1.1974 0.49516,2.61087 z m -3.11504,0 q 0,-0.97232 -0.2521,-1.75559 -0.25208,-0.78326 -0.72924,-1.32344 -0.46816,-0.54918 -1.1524,-0.83728 -0.68421,-0.2971 -1.5575,-0.2971 h -2.0347 v 8.43583 h 2.0347 q 0.87329,0 1.5575,-0.28809 0.68424,-0.2971 1.1524,-0.83728 0.47716,-0.54919 0.72924,-1.33245 0.2521,-0.78326 0.2521,-1.7646 z"
       style="font-weight:900;font-size:113.386px;font-family:Lato;-inkscape-font-specification:'Lato Heavy';letter-spacing:-4.96256px;word-spacing:3.34179px;baseline-shift:baseline;fill:white;stroke:none;stroke-width:3.001"
       id="path65335" />
    <path
       d="m 264.45104,154.74936 q 0,1.42248 -0.49516,2.6469 -0.48617,1.22441 -1.37748,2.13371 -0.89129,0.9003 -2.15171,1.41347 -1.25142,0.51318 -2.78193,0.51318 -1.53052,0 -2.79095,-0.51318 -1.26042,-0.51317 -2.16072,-1.41347 -0.89131,-0.9093 -1.38647,-2.13371 -0.48616,-1.22442 -0.48616,-2.6469 0,-1.42247 0.48616,-2.64688 0.49516,-1.22442 1.38647,-2.12472 0.9003,-0.9003 2.16072,-1.41347 1.26043,-0.51318 2.79095,-0.51318 1.53051,0 2.78193,0.52218 1.26042,0.51317 2.15171,1.41348 0.89131,0.9003 1.37748,2.12471 0.49516,1.22441 0.49516,2.63788 z m -3.11505,0 q 0,-0.97232 -0.25208,-1.74658 -0.25208,-0.78326 -0.72924,-1.32344 -0.46817,-0.54019 -1.15239,-0.82829 -0.68423,-0.28809 -1.55752,-0.28809 -0.8823,0 -1.57554,0.28809 -0.68423,0.2881 -1.16139,0.82829 -0.46815,0.54018 -0.72023,1.32344 -0.25208,0.77426 -0.25208,1.74658 0,0.98134 0.25208,1.7646 0.25208,0.77426 0.72023,1.31444 0.47716,0.54018 1.16139,0.82828 0.69324,0.27909 1.57554,0.27909 0.87329,0 1.55752,-0.27909 0.68422,-0.2881 1.15239,-0.82828 0.47716,-0.54018 0.72924,-1.31444 0.25208,-0.78326 0.25208,-1.7646 z"
       style="font-weight:900;font-size:113.386px;font-family:Lato;-inkscape-font-specification:'Lato Heavy';letter-spacing:-4.96256px;word-spacing:3.34179px;baseline-shift:baseline;fill:white;stroke:none;stroke-width:3.001"
       id="path65337" />
  </g>
</svg>
